<svg xmlns="http://www.w3.org/2000/svg" width="5300" height="6100" viewBox="0 0 5300 6100"><defs><style>.a{fill:#231f20;}.b,.c{fill:#fff;}.c{stroke:#000;stroke-miterlimit:10;stroke-width:60px;}.d{fill:#999;}.e{fill:#0f227a;}.f{opacity:0.55;}.g{opacity:0.3;}.h{fill:#d0d4d8;}.i{fill:#5e6c7a;}.j{fill:#e5c62c;}.k{fill:#e52c5c;}.l{fill:#5e7def;}.m{fill:#55bc5c;}</style></defs><path class="a" d="M2862.2646,2419.9084l-1.3277-1.7722C2861.3791,2418.7194,2861.8224,2419.3274,2862.2646,2419.9084Z"/><path d="M2862.2646,2419.9084c27.6214,36.214,55.2415,67.3335,82.8628,108.7649-27.6213-41.4314-55.2414-72.5509-82.8628-108.7649l82.4838,110.0645c53.7513-56.91,457.7872-485.53,562.0961-620.5223,45.1417-58.4182,15.9558-60.0234-31.2266-56.2872,26.6432-17.4448,44.0237-43.3548,44.2933-62.3067,0,0-32.9583-158.53-10.0174-426.4274,6.48-75.5833,24.4051-163.0227,22.9431-248.523-.6329-37.1909-14.5851-25.2162-39.3309-10.4055,9.3846-41.9842-25.4486-168.1228-47.9946-247.2414-29.9249-105.1381-72.7032-205.9263-116.0028-306.0929-79.3454-183.4366-189.1052-350.8723-313.14-506.6109,102.5379,163.7435,190.1511,336.4418,247.9635,521.5029,30.7382,100.8964,62.0529,202.4325,79.49,306.6692,12.797,76.5015,1.3525,191.6582,32.2916,236.9443-9.2414.2256-15.6309,8.1234-18.8809,34.8174-6.5892,54.2465,29.6,70.7177,19.4381,205.2663-7.31,96.4032-55.0316,153.8908-69.5975,437.6372a68.4652,68.4652,0,0,0,1.6244,18.8155c-12.1473-16.46-17.9784-28.4189-28.8419-18.5729,0,0-140.66,221.81-237.6572,364.8347-72.4279,106.7987-162.0559,196.2574-202.833,234.749q10.7858,15.7014,21.5714,29.917Zm493.56-1607.4676c-19.5126-102.42-47.7409-202.7856-77.6657-302.545,42.1082,93.036,75.229,188.9959,100.6065,287.88,13.88,54.1112,26.3872,110.2732,32.4721,165.82,3.3741,31.2244,21.9639,97.5945-8.4483,119.64-10.8477-7.6981-15.5586-18.6079-15.6849-31.64-.2527-25.514-2.7616-50.5114-4.9084-75.8878C3377.466,920.8808,3366.0949,866.4346,3355.8248,812.4408Zm19.4934,327.3167c55.8991,15.6049,112.6274,5.7319,141.3813-17.2722C3495.2026,1175.0984,3412.3184,1184.9624,3375.3182,1139.7575ZM3400.425,1391.8c21.93-61.3489-93.3518,396.5928,62.5763,427.7642-24.131,13.1671-83.2791,17.5622-113.927-11.8235C3318.4082,1778.3574,3378.4768,1453.1954,3400.425,1391.8Zm-110.6071,458.4754c22.0914-9.8832,42.3271,85.8161,205.528,35.0611-23.4451,46.4852-152.7322,13.871-225.238,74.5442-83.3163,69.68-215.3842,282.2021-374.85,420.3087C3090.1368,2177.3045,3271.5157,1858.4609,3289.8179,1850.2755Z"/><path class="a" d="M2839.3655,2388.2192c-.1556.1467-.3418.326-.4952.4715l22.0666,29.4455Q2850.1511,2403.9289,2839.3655,2388.2192Z"/><path d="M5210.0919,3655.2071a78.4477,78.4477,0,0,0-36.2806-29.7275c69.601-25.884,40.1059-49.8537-66.458-108.4253-84.6148-46.4954-701.0409-682.9542-701.0409-682.9542-63.6063-55.24-118.313-52.02-164.0492-25.7114,38.0482-79.12,13.7525-102.5209-97.325-86.7547-120.93,17.21-950.97,77.061-1043.4209,64.4185-25.3223-3.4746-44.51-3.2489-59.2361.7118l36.4046,209.6c30.63,5.469,67.56,5.3607,106.9792,5.09,0,0,861.0312,82.2152,961.91,71.7815,45.3391-4.6928,52.9932-29.2209,53.86-65.9888a139.9625,139.9625,0,0,0,12.2567,12.4722c411.7238,364.256,460.5668,319.0433,612.0908,466.3629,174.2856,169.5025,126.2221,200.6739,176.6512,220.6535,15.5586,6.1549,29.1307,3.2861,42.1635-4.0419-12.814,64.4546,42.687,132.7717,59.5632,217.206,27.5965,138.1528,18.952,250.9427,7.8707,391.3494-16.0651,203.0936-70.52,419.9386-162.79,602.8157,125.03-178.8881,202.0659-396.2036,248.7046-607.671,26.28-119.09,35.7729-239.3189,38.011-360.9711C5237.7436,3848.01,5253.3925,3719.3706,5210.0919,3655.2071ZM4155.786,3029.5926c-69.6518-27.0189,28.0138-189.068-63.1-214.4625-90.5722-25.17-777.319,21.0716-994.9571,0,290.09.5945,1075.8006-64.564,1093.6154-55.4118C4212.8234,2770.7826,4128.8754,2913.7885,4155.786,3029.5926Zm65.1416-97.1591c-4.3849-36.875,39.4741-105.8149,95.1195-105.7968,42.4534.0541,456.7065,410.977,495.1146,463.6262C4663.1934,3186.677,4333.8438,2758.8237,4220.9276,2932.4335Zm817.6392,735.9655c-.7017-56.8,71.7827-98.1891,123.4583-71.0066C5104.4856,3604.7938,5056.1289,3636.0363,5038.5668,3668.399Zm96.4754,636.2805c17.9232-96.295,21.0446-194.9533,12.0751-292.4914-5.2163-56.6381-12.5624-113.3506-26.5688-168.6011-5.2873-24.7447-13.68-48.931-22.7062-72.5408-3.2861-8.5554-30.5758-53.0654-17.0759-60.9519,27.8864-16.2625,58.8412,104.1623,62.2537,117.9532,13.8078,56.1327,22.7423,115.4443,23.97,173.2748C5172.6032,4103.4822,5164.5351,4206.5277,5135.0422,4304.68Z"/><path d="M4633.3854,4561.63c-69.6889-119.3971-338.8074-1007.25-338.8074-1007.25-11.6419-28.6637-46.4413-59.3466-89.9405-72.7393,56.1519-44.9793,54.8692-105.8962-95.1748-137.4827-187.8779-39.62-936.9111-309.6023-936.9111-309.6023-2.7853-1.0819-5.5491-2.0487-8.3253-3.0436-63.8827,52.6153-82.8369,147.9942-56.71,218.9545.2223-.4.4862-.758.7073-1.16,94.2,27.328,430.7672,136.4189,818.1288,397.5392,36.4047,24.5484,57.6116,20.9927,76.8546,3.7374.5415,1.3526.9014,2.7615,1.515,4.0972,244.3006,531.34,292.7453,546.6639,355.1242,676.0424,62.36,129.3424,90.66,230.1847,99.739,298.3924,7.635,57.3984,28.8634,48.7166,61.7123,38.2829-19.4032,34.9268-27.8334,84.3271-33.7536,116.9977-88.1525,485.0058-370.7359,926.2789-727.41,1260.1589,387.9008-308.0151,704.8854-729.7948,839.7678-1209.837,13.3047-47.29,45.9912-96.2938,34.4925-143.4751a66.4179,66.4179,0,0,0-13.915-26.7685C4700.2034,4671.9125,4669.7,4623.8468,4633.3854,4561.63ZM3975.12,3618.6185c-54.8342-50.7923,114.7776-148.186,39.4573-205.3317-74.9042-56.7464-574.7838-208.1272-769.34-307.9057,269.46,107.4495,917.2733,288.54,930.4494,303.664C4191.5866,3427.2209,3992.7911,3501.0793,3975.12,3618.6185Zm125.5712-24.0238c14.567-34.1135,86.9984-71.9271,135.2085-44.1129,36.7487,21.2623,207.93,601.1721,214.8979,665.9335C4374.3374,4052.7981,4266.9262,3528.1366,4100.6907,3594.5947Zm460.2419,1208.7167c-6.4425,25.6855-12.9764,51.3519-19.9976,76.8918-16.2976,59.3105-33.14,119.1975-54.9437,176.7211-34.8151,101.1853-79.09,197.3539-131.1473,290.7226,41.6953-97.3937,81.6027-195.33,111.3121-297.2193,17.5429-55.5562,32.6514-111.7994,47.831-168.0054,6.931-25.7013,13.1581-51.5842,19.5126-77.4671,5-20.3959,6.64-47.1091,27.5243-57.9569C4573.5323,4764.3426,4565.5725,4784.7216,4560.9326,4803.3114Zm-65.6255-157.6789c21.26-52.7055,104.1442-62.92,141.29-17.869C4580.68,4612.3674,4524.0046,4622.5473,4495.3071,4645.6325Z"/><path d="M2241.881,2747.9937c-12.0469-.9826-26.35-.2786-43.3988,2.0588-92.45,12.6425-922.4885-47.2084-1043.421-64.4185-111.0763-15.7662-135.3608,7.6349-97.3215,86.7547C1012.0023,2746.08,957.2933,2742.86,893.687,2798.1c0,0-616.425,636.4588-701.0408,682.9542-106.564,58.5716-136.0568,82.5413-66.4671,108.4253a78.4687,78.4687,0,0,0-36.27,29.7275c-43.3018,64.1635-27.6518,192.8031-25.8649,290.216,2.2381,121.6522,11.7333,241.8808,38.011,360.9711,46.641,211.4674,123.6749,428.7829,248.7046,607.671-92.2688-182.8771-146.724-399.7221-162.788-602.8157-11.0813-140.4067-19.7281-253.1966,7.8707-391.3494,16.8739-84.4343,72.3783-152.7514,59.553-217.206,13.0407,7.328,26.6049,10.1968,42.1737,4.0419,50.429-19.98,2.3633-51.151,176.6489-220.6535,151.5252-147.32,200.367-102.1069,612.0943-466.3629a140.1784,140.1784,0,0,0,12.2465-12.4722c.8743,36.7679,8.5272,61.296,53.8675,65.9888,100.8784,10.4337,961.9107-71.7815,961.9107-71.7815,32.37.2166,63.0727.34,89.9935-2.64,56.9426-67.7994,31.6305-149.6785,43.1235-232.416C2245.6082,2736.2661,2243.6171,2742.1073,2241.881,2747.9937ZM202.1571,3735.0462c-9.0225,23.61-17.4155,47.7961-22.7062,72.5408-14.0052,55.2505-21.35,111.963-26.5688,168.6011-8.9694,97.5381-5.8469,196.1964,12.0773,292.4914-29.4928-98.1518-37.562-201.1973-31.95-303.3572,1.2273-57.8305,10.1618-117.1421,23.9708-173.2748,3.4113-13.7909,34.3661-134.2157,62.2525-117.9532C232.7329,3681.9808,205.4432,3726.4908,202.1571,3735.0462Zm-64.1827-173.6538c51.6756-27.1825,124.1633,14.2061,123.4583,71.0066C243.8705,3600.0363,195.516,3568.7938,137.9744,3561.3924Zm941.1-664.9589c-112.9185-173.61-442.2658,254.2435-590.2364,357.8294,38.4093-52.6492,452.6623-463.5721,495.1147-463.6262C1039.5988,2790.6186,1083.46,2859.5585,1079.0741,2896.4335ZM1207.3132,2779.13c-91.1114,25.3945,6.552,187.4436-63.1,214.4625,26.9106-115.8041-57.0374-258.81-35.5586-269.8743,17.816-9.1522,803.5279,56.0063,1093.6188,55.4118C1984.6322,2800.2017,1297.8854,2753.96,1207.3132,2779.13Z"/><path d="M2407.259,2376.9171c-3.5862,3.5117-7.2142,6.9355-10.7485,10.551-43.6616-41.8646-126.6959-126.7151-194.7073-226.9979-96.9978-143.025-237.6572-364.8347-237.6572-364.8347-10.8568-9.846-16.7037,2.1129-28.8532,18.5729a67.9845,67.9845,0,0,0,1.6346-18.8155c-14.567-283.7464-62.2887-341.234-69.5987-437.6372-10.1619-134.5486,26.0273-151.02,19.4381-205.2663-3.2376-26.694-9.6361-34.5918-18.8774-34.8174,30.9266-45.2861,19.5-160.4428,32.2882-236.9443,17.4369-104.2367,48.7516-205.7728,79.4909-306.6692C2037.48,388.9974,2125.093,216.2991,2227.6308,52.5556c-124.0347,155.7386-233.7935,323.1743-313.14,506.6109-43.3,100.1666-86.0767,200.9548-116.0027,306.0929-22.5528,79.1186-57.37,205.2572-47.9935,247.2414-24.7368-14.8107-38.69-26.7854-39.33,10.4055-1.462,85.5,16.4611,172.94,22.9409,248.523,22.9408,267.8979-10.0175,426.4274-10.0175,426.4274.2629,18.9519,17.6625,44.8619,44.2934,62.3067-47.1892-3.7362-76.3684-2.131-31.2256,56.2872,97.8574,126.6474,459.2526,511.4325,547.9589,605.5344C2327.3529,2476.9449,2394.1111,2449.424,2407.259,2376.9171Zm-512.3316-562.1763c-30.6479,29.3857-89.796,24.9906-113.9293,11.8235,155.9293-31.1714,40.6474-489.1131,62.5764-427.7642C1865.5226,1460.1954,1925.5912,1785.3574,1894.9274,1814.7408ZM1832.764,970.596c6.0827-55.5472,18.59-111.7092,32.471-165.82,25.3786-98.8839,58.4971-194.8438,100.6076-287.88-29.9271,99.7594-58.1553,200.1245-77.6668,302.545-10.269,53.9938-21.6413,108.44-26.3691,163.2675-2.1479,25.3764-4.6579,50.3738-4.9117,75.8878-.1252,13.0317-4.8361,23.9415-15.6839,31.64C1810.7978,1068.1905,1829.39,1001.82,1832.764,970.596Zm-105.463,158.8893c28.7528,23.0041,85.4822,32.8771,141.38,17.2722C1831.681,1191.9624,1748.7979,1182.0984,1727.301,1129.4853Zm246.5917,837.3955c-72.5036-60.6732-201.7941-28.059-225.2392-74.5442,163.2032,50.755,183.4366-44.9443,205.5292-35.0611,18.301,8.1854,199.6811,327.029,394.5611,529.914C2189.2757,2249.0829,2057.2078,2036.5607,1973.8927,1966.8808Z"/><path d="M3068.8825,3177.031c2.6894-3.3549,5.1046-6.9885,7.6879-10.4517-309.7557-28.8227-628.8949,1.9166-939.2011,10.33.0316.0395.0586.0824.09.1218-398.6233,194.5-676.5488,630.6108-676.5488,1137.82,0,688.2246,511.4132,1246.1524,1142.2586,1246.1524,630.83,0,1142.2079-557.9278,1142.2079-1246.1524C3745.3772,3807.6418,3467.4867,3371.5308,3068.8825,3177.031Z"/><path class="b" d="M2322.0412,4834.2237c319.5926,0,651.3416-392.6467,651.3416-781.5233,0-388.8406-305.2524-704.0732-624.8281-704.0732-319.5735,0-661.5475,445.244-661.5475,834.0834C1687.0072,4571.585,2002.4744,4834.2237,2322.0412,4834.2237Z"/><path class="b" d="M3337.2226,3593.864c102.5029,170.64,162.32,374.58,162.32,593.8643,0,599.4213-445.4244,1085.3138-994.8228,1085.3138-284.4053,0-540.7256-130.4084-722.0335-339.1673,177.707,295.8847,484.0864,491.4325,832.486,491.4325,549.4266,0,994.8319-485.8913,994.8319-1085.3318C3610.0041,4050.8593,3506.1667,3788.348,3337.2226,3593.864Z"/><path d="M2853.6875,2354.8065c-8.6514-6.8452-17.4031-13.4366-26.3026-19.6163,35.448-34.89,56.7667-78.461,56.7667-125.895,0-49.0494-22.6341-94.0467-60.2875-129.4969,22.1828-30.1686,33.6814-64.3633,27.0031-102.6822-10.8116-62.18-52.0377-110.4266-111.8524-150.6679,31.7309,39.97,60.4465,89.2907,49.258,137.8426-5.3979,23.4733-15.6308,49.88-38.3742,67.0819-40.6835-18.248-87.9922-28.9073-138.692-28.9073-50.2227,0-97.1151,10.4517-137.5369,28.3749-21.8568-18.7625-35.2325-42.6791-38.9868-67.9292-7.3281-49.5288,16.9676-95.4376,49.5818-136.4629-58.86,39.6005-104.0912,89.5614-112.0329,151.68-8.3389,37.1537,3.7283,71.3383,26.4153,101.5452-37.7323,35.466-60.4194,80.5175-60.4194,129.6221,0,43.2093,17.8284,83.1392,47.7905,116.2994C2533.8432,2350.7364,2709.7092,2383.9959,2853.6875,2354.8065ZM2440.8648,2215.432c0,20.062,5.874,39.0049,16.11,56.179-19.1426-21.7869-30.4878-47.8051-30.4878-75.889,0-76.0344,81.3681-137.6722,181.74-137.6722,73.7139,0,136.9412,33.3554,165.4063,81.1222-32.5071-36.9913-87.9358-61.4122-151.0378-61.4122C2522.2216,2077.76,2440.8648,2139.3908,2440.8648,2215.432Z"/><path d="M2265.2329,2540.5713a412.75,412.75,0,0,0-43.366-24.3329L1434.7132,2085.19c-36.0448-17.5441-43.41-6.887-48.2191,16.6608-137.177-394.454-167.6625-304.3691-224.5623-504.9539-21.9673-77.5562-15.4334-203.2447-40.7568-225.4275-10.2961-9.0338-18.908-9.0338-29.33-6.8328a50.212,50.212,0,0,0,10.5037-13.1017c25.0537-45.893.67-190.2514,14.1688-286.13,14.6573-104.3811,41.5149-204.69,78.0289-301.9313,63.1923-168.1217,163.78-335.9918,288.9357-449.0987-145.605,99.7143-265.4725,262.8114-351.8031,430.9048-49.8323,96.9437-85.5544,199.9508-114.0895,307.3281-25.611,96.4383-70.43,257.8545-46.7661,294.7476a50.4317,50.4317,0,0,0,3.8186,4.9625c-42.5-10.0524-49.6191,3.6189-15.6963,59.8339,0,0,172.88,684.1387,211.2159,747.9887,35.8293,59.7155,78.9562,93.6857,126.1476,81.6828-31.8584,14.7633-67.8309,20.1251-82.6856,33.6622-17.76,16.2355-5.2344,44.2381,39.15,58.9484,295.4876,97.8562,870.0367,349.61,870.0367,349.61,23.9889,11.6689,46.8756,22.6971,68.3894,31.0529-1.0683,3.1542-2.017,6.3309-3.0086,9.5C2242.7862,2690.5115,2249.0663,2604.5013,2265.2329,2540.5713Zm-1289.59-1165.41c28.7878,22.9758,85.4823,32.8861,141.4,17.2553C1080.0583,1437.6311,997.138,1427.7569,975.6433,1375.1608ZM1254.4522,2208.08c136.3647-144.6754-121.544-543.5142-82.1961-491.578,39.3478,52.0016,197.5332,364.7885,185.3306,405.4189C1341.5769,2175.1939,1298.8549,2208.432,1254.4522,2208.08Zm231.8091,0c-93.2435-15.7572-116.2024,109.0638-223.0732,73.9667,168.8526-26.3985,135.3529-163.42,159.485-164.2862,20.0349-.7231,514.2651,301.444,777.1012,424.18C1993.8289,2468.5337,1578.9272,2223.7379,1486.2613,2208.08Z"/><path d="M2082.33,3011.7571c-71.0788,25.5411-752.78,269.8574-930.7935,307.4014-150.053,31.5865-151.3176,92.5034-95.1646,137.4827-43.5184,13.3927-78.3166,44.0756-89.95,72.7393,0,0-269.1174,887.8527-338.8052,1007.25-36.3166,62.2165-66.8112,110.2822,12.9042,102.8447a66.4064,66.4064,0,0,0-13.9161,26.7685c-11.4975,47.1813,21.1912,96.1855,34.4925,143.4751,134.8825,480.0422,451.867,901.8219,839.7679,1209.837-356.6742-333.88-639.2565-775.1531-727.41-1260.1589-5.9112-32.6706-14.3493-82.0709-33.7435-116.9977,32.832,10.4337,54.0762,19.1155,61.7021-38.2829,9.0789-68.2077,37.3793-169.05,99.7413-298.3924,62.3789-129.3785,110.8248-144.7025,355.1219-676.0424.6137-1.3357.9758-2.7446,1.5082-4.0972,19.2408,17.2553,40.4658,20.811,76.8637-3.7374,369.9134-249.3532,693.46-360.0494,803.9047-393.3326,2.3272,4.1074,4.94,7.9282,7.4014,11.9014-2.3961-79.9693-19.8274-159.9374-63.8827-239.9066C2082.1745,3004.2428,2082.1937,3008.05,2082.33,3011.7571ZM624.4023,4602.7635c37.147-45.0514,120.03-34.8365,141.2934,17.869C736.9949,4597.5473,680.32,4587.3674,624.4023,4602.7635Zm185.8023-411.3482c6.9671-64.7614,178.147-644.6712,214.8968-665.9335,48.21-27.8142,120.6426,9.9994,135.21,44.1129C994.0744,3503.1366,886.6621,4027.7981,810.2046,4191.4153Zm436.2181-803.1285c-75.32,57.1457,94.2915,154.5394,39.4572,205.3317-17.6715-117.5392-216.4671-191.3976-200.5667-209.5734,13.1761-15.1243,660.9892-196.2145,930.45-303.664C1821.2087,3180.16,1321.3291,3331.54,1246.4227,3388.2868Z"/><path d="M3132.1891,2686.0442s574.55-251.7539,870.0379-349.61c44.3836-14.71,56.91-42.7129,39.1493-58.9484-14.8547-13.5371-50.8273-18.8989-82.6834-33.6622,47.1982,12.0029,90.3183-21.9673,126.1453-81.6828,38.3382-63.85,211.2159-747.9887,211.2159-747.9887,33.9138-56.215,26.8034-69.8863-15.703-59.8339a49.51,49.51,0,0,0,3.8265-4.9625c23.6628-36.8931-21.154-198.3093-46.7673-294.7476-28.5351-107.3773-64.2538-210.3844-114.0895-307.3281-86.3305-168.0934-206.1981-331.19-351.8019-430.9048,125.1549,113.1069,225.7445,280.977,288.9357,449.0987,36.514,97.2414,63.3716,197.55,78.0278,301.9313,13.5021,95.8787-10.885,240.2371,14.1688,286.13a50.0806,50.0806,0,0,0,10.5059,13.1017c-10.4157-2.201-19.0433-2.201-29.3326,6.8328-25.3223,22.1828-18.7895,147.8713-40.7534,225.4275-56.8942,200.5848-87.3786,110.5-224.5556,504.9539-4.8181-23.5478-12.1822-34.2049-48.227-16.6608l-787.1548,431.0481c-21.1528,10.3118-40.4861,21.5081-57.0645,33.6069,2.2641,66.8518,21.4563,118.8422,72.9582,170.5764C3074.7016,2713.8663,3102.6252,2700.4205,3132.1891,2686.0442ZM4087.1858,788.8749c51.1149,86.0959,82.07,183.193,105.0478,280.19a881.6838,881.6838,0,0,1,24.5653,159.9283c1.5523,43.6436,17.29,123.26-21.1,138.5736-14.9641-38.0742-2.1851-87.6922-3.9889-127.7-2.3656-52.8308-9.3316-105.2813-18.917-157.2187C4154.3478,982.4463,4128.8248,882.1184,4087.1858,788.8749Zm192.1726,588.2859c-21.4969,52.5961-104.4173,62.47-141.4,17.2553C4193.8761,1410.0469,4250.5683,1400.1366,4279.3584,1377.1608ZM4082.7456,1718.502c39.3478-51.9362-218.5608,346.9026-82.1972,491.578-44.4005.352-87.1258-32.8861-103.1346-86.1591C3885.2124,2083.2905,4043.3989,1770.5036,4082.7456,1718.502Zm-250.4192,401.2585c24.1332.8664-9.3666,137.8877,159.4849,164.2862-106.87,35.0971-129.83-89.7239-223.072-73.9667-92.6671,15.6579-507.5688,260.4537-713.5131,333.8608C3318.0624,2421.2045,3812.2937,2119.0374,3832.3264,2119.7605Z"/><path class="c" d="M2746.0229,3481.2922h-268.99a269.3984,269.3984,0,0,0-249.7483,168.3964h0A195.3511,195.3511,0,0,1,2046.1822,3771.8h0c-141.1562,0-235.7175-145.1072-178.714-274.24l454.8344-1030.3685a319.8021,319.8021,0,0,1,292.5654-190.6565h0a319.802,319.802,0,0,1,292.4114,190.3071l456.367,1030.5047c57.1974,129.156-37.3639,274.453-178.6206,274.453h-8.1523a195.3514,195.3514,0,0,1-181.1024-122.111h0A269.3981,269.3981,0,0,0,2746.0229,3481.2922Zm27.9954-385.9327-112.43-279.8292c-18.1276-45.1146-81.9929-45.1146-100.12,0l-112.43,279.8292c-14.2426,35.449,11.8572,74.0621,50.0589,74.0621H2723.96C2762.1612,3169.4216,2788.2609,3130.8085,2774.0183,3095.36Z"/><path class="d" d="M3479.4648,4570.8792a118.7219,118.7219,0,0,1-134.1979-6.5464c-72.4451-54.9151-156.4551-144.5263-242.5013-240.3193-43.06-52.0064-97.1755-82.2643-171.0022-73.7544H2297.7969c-73.754-8.51-127.9423,21.748-170.9294,73.7544-2.3277,2.6183-4.6548,5.1639-6.9825,7.71-83.6463,92.883-165.1106,179.1487-235.5188,232.6094a118.8391,118.8391,0,0,1-134.2707,6.5464c-103.43-63.79-133.9067-183.6582-122.2691-331.0213.0728-1.3819.2184-2.764.3636-4.2188,2.4-30.04,6.692-61.1707,12.438-93.2475a1.237,1.237,0,0,1,.0728-.5092c.4363-2.4727.9456-5.0188,1.382-7.4915,27.2759-147.9451,85.1007-314.1465,148.4538-475.62,18.766-47.7876,37.9684-95.1387,57.0251-141.5443,5.5281-13.3831,10.9833-26.84,16.4384-40.0047l54.9156-31.4944.8727-2.91,11.8561-43.496a66.5524,66.5524,0,0,1,35.9315-42.8415c78.7-37.2407,159.9463-64.7352,244.1745-80.7367,2.182-.4364,4.2912-.8732,6.4732-1.2368a67.46,67.46,0,0,1,46.9876,8.8012l61.8983,37.75a124.81,124.81,0,0,0,65.39,18.4748h444.6348a125.189,125.189,0,0,0,65.39-18.4748l61.8255-37.75a67.5113,67.5113,0,0,1,47.06-8.8012c86.41,15.8564,169.8382,43.7872,250.5749,81.9735a67.0717,67.0717,0,0,1,36.0044,42.8415l12.6559,46.4056,54.9156,31.4944c5.8192,14.0379,11.7108,28.2943,17.53,42.6235,84.2283,204.897,171.4386,429.5784,205.77,622.1829C3623.0454,4333.5419,3604.9342,4493.4153,3479.4648,4570.8792Z"/><path class="e" d="M1812.3715,4590.7582a120.0968,120.0968,0,0,1-63.3562-18.1367c-95.939-59.1693-136.2471-168.0693-123.23-332.9264.064-1.2969.2041-2.6519.3482-4.0709,2.3256-29.1063,6.4005-59.6716,12.4767-93.5954-.016.04-.0521-.2021.104-.68.2122-1.1909.44-2.3977.6645-3.6045.2362-1.2429.4724-2.4838.6885-3.7087,30.3492-164.6169,99.3214-350.5067,148.56-476.0123,16.3435-41.617,34.4681-86.6024,57.0358-141.5748q3.8248-9.2585,7.6094-18.521c2.95-7.211,5.8921-14.394,8.8341-21.491l.2682-.6464,54.81-31.434.64-2.1274,11.84-43.4444a68.39,68.39,0,0,1,37.0419-44.1588c80.6162-38.1507,162.9378-65.3677,244.6588-80.8945l.9847-.1981c1.8533-.3723,3.6666-.7366,5.5359-1.0468a69.36,69.36,0,0,1,48.39,9.07l61.9032,37.7523a122.7183,122.7183,0,0,0,64.3209,18.1747h444.6345a123.1314,123.1314,0,0,0,64.3209-18.1727l61.8232-37.7524a69.3933,69.3933,0,0,1,48.49-9.0683c83.9466,15.4028,168.4216,43.0361,251.0913,82.1374a69.0292,69.0292,0,0,1,37.1019,44.1468l12.4367,45.5958,54.7862,31.42.2683.6464c5.82,14.0438,11.7161,28.3038,17.5322,42.6378,87.0328,211.7118,172.2162,433.6728,205.8917,622.5947,39.2555,219.9176,3.1623,360.882-110.337,430.9529l.004-.002c-41.9773,26.04-96.8356,23.3663-136.5153-6.6506-73.4913-55.7109-160.12-148.5538-242.7895-240.586-47.109-56.9017-102.4836-80.7764-169.2382-73.089l-634.2029.0139c-67.0868-7.7313-122.3694,16.1654-169.35,73.011-2.2535,2.54-4.4631,4.9575-6.6726,7.3732l-.3763.4143c-79.6076,88.4-163.282,177.8-235.7927,232.86A121.3657,121.3657,0,0,1,1812.3715,4590.7582Zm-169.7065-448.227-.02.2222c-6.0522,33.79-10.111,64.2248-12.4126,93.0469-.16,1.5891-.2923,2.8781-.36,4.163-12.889,163.23,26.7907,270.8851,121.3007,329.17,41.1968,25.51,92.997,22.9861,131.9562-6.4344,72.2384-54.85,155.7487-144.0866,235.2362-232.3462l.3882-.4263c2.19-2.4,4.3871-4.8054,6.5807-7.2731,47.8974-57.9485,104.4168-82.2975,172.7-74.43l633.7306-.014c68.0434-7.8575,124.5669,16.5076,172.5764,74.498,82.4816,91.8181,168.946,184.4928,242.1611,239.9936,38.3388,29,91.3318,31.5881,131.88,6.4365l.004-.002c111.9022-69.0862,147.3789-208.6757,108.4558-426.746-33.6075-188.5416-118.7029-410.2565-205.6517-621.7661-5.728-14.1119-11.524-28.1456-17.256-41.9714l-55.0425-31.568-12.881-47.2209a64.9219,64.9219,0,0,0-34.8963-41.5271c-82.3535-38.9511-166.4922-66.4764-250.0746-81.8131a65.2944,65.2944,0,0,0-45.6239,8.534l-61.8232,37.75a127.2078,127.2078,0,0,1-66.4583,18.7751H2392.5006a126.8112,126.8112,0,0,1-66.4624-18.7791l-61.8953-37.7463a65.34,65.34,0,0,0-45.5557-8.532c-1.8493.3062-3.6226.6645-5.4278,1.0267l-1.0087.2022c-81.4009,15.4647-163.3861,42.5737-243.6982,80.58a64.3115,64.3115,0,0,0-34.8323,41.523l-12.9771,47.2409-55.0184,31.554c-2.85,6.8809-5.7,13.8417-8.562,20.8286q-3.7887,9.2526-7.6093,18.529c-22.56,54.9483-40.6764,99.9157-57.0078,141.5107-49.1783,125.3476-118.0624,310.9872-148.3476,475.2439-.2122,1.2249-.4523,2.4837-.6884,3.7426-.2362,1.2489-.4724,2.5-.6925,3.7326Z"/><g class="f"><path class="b" d="M3588.859,4141c-34.33-192.6046-121.5407-417.286-205.7692-622.1829-5.8192-14.3292-11.71-28.5857-17.53-42.6236L3310.6448,3444.7l-12.6558-46.4056a67.0736,67.0736,0,0,0-36.0051-42.8413c-80.736-38.1866-164.1647-66.1175-250.5747-81.9735a67.5106,67.5106,0,0,0-47.06,8.801l-61.826,37.75c-1.0139.6211-2.0664,1.1624-3.0952,1.7532a16.0665,16.0665,0,0,0-24.02,10.6279,124.7824,124.7824,0,0,1-38.2742,6.0936H2392.4988a125.14,125.14,0,0,1-17.4437-1.2287,16.181,16.181,0,0,0-30.515-8.9619l-.24.4685a124.5214,124.5214,0,0,1-17.1909-8.7526l-61.8987-37.75a67.46,67.46,0,0,0-46.9875-8.801c-2.1815.3636-4.29.8-6.4731,1.2365-84.2278,16.0016-165.4738,43.496-244.1742,80.737a66.5512,66.5512,0,0,0-35.9311,42.8413l-11.8561,43.496-.873,2.91L1864,3476.1939c-5.4556,13.1652-10.91,26.6218-16.4381,40.0047-19.0575,46.4055-38.26,93.7566-57.0256,141.5443-63.353,161.4738-121.1779,327.6752-148.4538,475.62-.4362,2.4728-.9456,5.0187-1.3818,7.4916a1.2406,1.2406,0,0,0-.0726.5093c-5.7459,32.0767-10.0375,63.2076-12.4381,93.2476-.1451,1.4546-.2909,2.8367-.3641,4.2188a685.7483,685.7483,0,0,0-1.9556,77.8032q.5586-17.4072,1.9556-35.3693c.0732-1.382.219-2.764.3641-4.2189,2.4006-30.04,6.6922-61.1706,12.4381-93.2473a1.2411,1.2411,0,0,1,.0726-.51c.4362-2.4727.9456-5.0187,1.3818-7.4914,27.2759-147.9451,85.1008-314.1465,148.4538-475.62,18.766-47.7876,37.9681-95.1387,57.0256-141.5442,5.5276-13.3834,10.9825-26.84,16.4381-40.0048l54.9156-31.4944.873-2.9095,11.8561-43.496a66.5524,66.5524,0,0,1,35.9311-42.8417c78.7-37.2407,159.9464-64.7351,244.1742-80.7367,2.1827-.4364,4.2916-.8732,6.4731-1.2368a67.46,67.46,0,0,1,46.9875,8.8013l61.8706,37.7328-35.5577,69.517a16.2,16.2,0,1,0,28.8461,14.7534l36.3455-71.0579a124.9292,124.9292,0,0,0,35.7835,5.2794h444.6349a124.97,124.97,0,0,0,52.9475-11.8586l39.7109,77.6371a16.2,16.2,0,0,0,28.8461-14.7534l-40.4431-79.0689,46.154-28.1809a67.5107,67.5107,0,0,1,47.06-8.8013c86.41,15.8564,169.8387,43.7872,250.5747,81.9735a67.0748,67.0748,0,0,1,36.0051,42.8417l12.6558,46.4055,54.9149,31.4944c5.82,14.0379,11.7109,28.2941,17.53,42.6236,84.2285,204.8969,171.4388,429.5783,205.7692,622.1827,8.271,46.332,13.4437,90.7879,14.8129,132.6975C3605.5211,4262.26,3599.9842,4203.3228,3588.859,4141Z"/></g><g class="g"><path d="M2812.6028,3339.5325c.8727,3.928,1.382,6.2552,1.382,6.2552l79.5731,131.5066,25.3847-12.1468c46.842-92.8111,136.38-80.2279,136.38-80.2279l-35.8588-103.3574-2.4732-5.8188c-2.182-.4364-4.2912-.8732-6.4732-1.2368a67.46,67.46,0,0,0-46.9875,8.8012l-61.8983,37.75a124.81,124.81,0,0,1-65.39,18.4748Z"/></g><g class="g"><path d="M2416.1383,3339.5325c-.8728,3.928-1.382,6.2552-1.382,6.2552l-79.5731,131.5066-25.3848-12.1468c-46.8419-92.8111-136.38-80.2279-136.38-80.2279l35.8588-103.3574,2.4731-5.8188c2.182-.4364,4.2912-.8732,6.4732-1.2368a67.46,67.46,0,0,1,46.9876,8.8012l61.8983,37.75a124.81,124.81,0,0,0,65.39,18.4748Z"/></g><path class="b" d="M3588.859,4142.028c-34.33-192.6047-121.5407-417.286-205.7692-622.183-5.8192-14.3291-11.71-28.5857-17.53-42.6235l-54.9149-31.4945-.0113-.0387-220.8994-56.02a159.8207,159.8207,0,0,0-155.8506,45.5742l-89.8718,95.807a122.9585,122.9585,0,0,1-89.6772,38.8351H2475.2417a122.9587,122.9587,0,0,1-89.6772-38.8351l-89.8718-95.807a159.8205,159.8205,0,0,0-155.85-45.5742l-220.9333,56.0629L1864,3477.2215c-5.4556,13.1652-10.91,26.6217-16.4381,40.0047-19.0575,46.4055-38.26,93.7566-57.0256,141.5442-63.353,161.4738-121.1779,327.6752-148.4538,475.62-.4362,2.4729-.9456,5.0188-1.3818,7.4916a1.2411,1.2411,0,0,0-.0726.5094c-5.7459,32.0767-10.0375,63.2075-12.4381,93.2475-.1451,1.4547-.2909,2.8368-.3641,4.2188-11.6371,147.3631,18.8392,267.2317,122.2691,331.0213a118.8392,118.8392,0,0,0,134.2705-6.5464c70.4087-53.4609,151.8731-139.7263,235.52-232.6094,2.3273-2.546,4.6546-5.0917,6.9825-7.71,42.9869-52.0063,97.1753-82.2645,170.9288-73.7545h633.9668c73.8267-8.51,127.9425,21.7482,171.0026,73.7545,86.0458,95.7929,170.0559,185.404,242.5008,240.3193a118.7224,118.7224,0,0,0,134.1979,6.5464C3604.9341,4493.415,3623.0455,4333.5416,3588.859,4142.028Z"/><g class="g"><path d="M3479.4607,4570.832c-41.7387,25.9386-95.0514,23.0657-134.1714-6.5059-72.4922-54.9186-156.4759-144.5624-242.4863-240.3744-43.0907-51.9611-97.2482-82.2087-171.0078-73.6751H2297.7811c-73.76-8.5336-127.9172,21.714-170.9234,73.6751-2.2813,2.6191-4.6474,5.2383-7.0133,7.7735-83.6444,92.8545-165.093,179.1186-235.4728,232.6009a118.79,118.79,0,0,1-134.256,6.5059C1646.7,4507.0421,1616.2,4387.2352,1627.8586,4239.8a35.5651,35.5651,0,0,1,.3384-4.14c.3382-4.4783.7611-8.956,1.2675-13.5188,11.3214,90.32,47.9063,162.8972,120.6511,207.6769a118.79,118.79,0,0,0,134.256-6.506c70.38-53.4819,151.8284-139.7464,235.4728-232.601,2.3659-2.6192,4.732-5.1542,7.0133-7.7734,43.0062-51.9611,97.1637-82.2087,170.9234-73.76h634.0141a190.3565,190.3565,0,0,1,62.5218,2.6192c.0846.0846.0846,0,.0846,0,42.837-38.612,61.6782-100.29,43.9354-157.6583-.8447-2.6192-1.69-5.2383-2.6186-7.7735-8.449-22.8119,17.9954-42.4982,37.0057-27.3746,1.184.93,2.2814,1.859,3.38,2.7883a151.0338,151.0338,0,0,1,48.0754,74.3512c13.1122,46.0945,2.97,94.7316-24.22,131.6083-12.1648,16.4986-10.5518,39.1427,2.58,54.8826q.132.1581.2637.3166c86.01,95.812,169.9941,185.4559,242.4863,240.3744,39.12,29.5716,92.4327,32.4445,134.1714,6.506,72.7448-44.8643,109.4142-117.4415,120.651-207.8455C3615.6576,4377.434,3587.0164,4504.4229,3479.4607,4570.832Z"/></g><path d="M3417.2361,4613.0357a143.1955,143.1955,0,0,1-86.64-29.3885c-74.9123-56.7536-162.4574-150.5091-245.9037-243.37q-.33-.3693-.6484-.7505c-42.4216-51.27-89.9148-71.9663-149.5084-65.1455a24.46,24.46,0,0,1-2.762.1581H2297.8025a24.4551,24.4551,0,0,1-2.7619-.1581c-59.5777-6.8148-107.0868,13.8776-149.5045,65.1455q-.3181.3813-.6484.7505c-83.4423,92.8568-170.9834,186.6063-245.9077,243.37-47.6172,36.0772-111.0736,39.1934-161.6649,7.9315-125.9479-77.8223-164.0025-233.6111-116.3492-476.2685,39.1954-199.5694,130.4751-429.25,220.61-647.3981a24.2769,24.2769,0,0,1,10.3633-11.7962l46.2-26.51,10.047-36.6936a91.18,91.18,0,0,1,48.99-58.4448c84.455-39.9059,170.7913-68.1116,256.6192-83.8365a91.2224,91.2224,0,0,1,64.0968,11.9263l61.8792,37.8184a101.0189,101.0189,0,0,0,52.6967,14.8243H2837.107a100.9949,100.9949,0,0,0,52.6929-14.8243l61.8831-37.8165a91.2036,91.2036,0,0,1,64.1008-11.9282c85.832,15.7269,172.1682,43.9326,256.6112,83.8365a91.1652,91.1652,0,0,1,48.9982,58.4468l10.047,36.6937,46.1963,26.5084A24.2767,24.2767,0,0,1,3388,3467.9121c90.1349,218.1484,181.4147,447.8287,220.61,647.3981,47.6533,242.6574,9.5988,398.4462-116.3492,476.2685A142.4778,142.4778,0,0,1,3417.2361,4613.0357Zm-296.0747-304.8788c81.7371,90.9475,167.2167,182.5354,238.7827,236.7552,31.494,23.8627,73.4032,25.9482,106.7706,5.3258,249.8824-154.4058,28.9722-694.4029-120.46-1056.1014l-47.6973-27.3691a24.293,24.293,0,0,1-11.3439-14.6583l-12.6929-46.3624a42.6151,42.6151,0,0,0-22.8879-27.341c-80.6283-38.1006-162.9258-65.0075-244.6068-79.9739a42.7063,42.7063,0,0,0-30.005,5.5939l-61.8752,37.8145a149.6086,149.6086,0,0,1-78.0385,21.9572H2392.4685A149.6083,149.6083,0,0,1,2314.43,3341.84l-61.8752-37.8165a42.7391,42.7391,0,0,0-30.001-5.5919c-81.677,14.9645-163.9745,41.8713-244.6147,79.9739a42.6164,42.6164,0,0,0-22.88,27.341l-12.6968,46.3644a24.3039,24.3039,0,0,1-11.344,14.6563l-47.6973,27.3691c-149.4323,361.6985-370.3426,901.6956-120.46,1056.1014,33.3753,20.6224,75.2845,18.533,106.77-5.3258,71.578-54.2278,157.05-145.81,238.7827-236.7533,52.7448-63.5523,115.2045-90.4431,190.7372-82.2173h631.2728C3005.9729,4217.7037,3068.4125,4244.6105,3121.1614,4308.1569Z"/><path d="M2754.3332,3591.4845H2475.2424a145.0765,145.0765,0,0,1-105.43-45.66l-89.8707-95.8068a138.24,138.24,0,0,0-134.79-39.4136l-220.9182,56.0252a21.599,21.599,0,0,1-10.6154-41.8733l220.9182-56.0251a181.4573,181.4573,0,0,1,176.9075,51.7341l89.8707,95.8069a101.7386,101.7386,0,0,0,73.9277,32.0144h279.0908a101.7383,101.7383,0,0,0,73.9277-32.0144l89.8707-95.8069a181.4478,181.4478,0,0,1,176.9116-51.7341l220.9142,56.0251a21.599,21.599,0,0,1-10.6154,41.8733l-220.9142-56.0252a138.2544,138.2544,0,0,0-134.7942,39.4136l-89.8708,95.8068A145.0762,145.0762,0,0,1,2754.3332,3591.4845Z"/><path d="M2295.681,3451.4446a16.2064,16.2064,0,0,1-14.41-23.58l53.0171-103.65a16.1993,16.1993,0,0,1,28.8441,14.7544l-53.0171,103.65A16.2007,16.2007,0,0,1,2295.681,3451.4446Z"/><path d="M2933.9747,3451.4446a16.1972,16.1972,0,0,1-14.4341-8.8261l-53.021-103.65a16.1993,16.1993,0,1,1,28.8441-14.7544l53.021,103.65a16.2062,16.2062,0,0,1-14.41,23.58Z"/><circle class="h" cx="2357.8409" cy="3985.3058" r="156.5899"/><path class="e" d="M2357.84,4143.9442c-87.4731,0-158.6388-71.1657-158.6388-158.6388s71.1657-158.6387,158.6388-158.6387,158.6387,71.1656,158.6387,158.6387S2445.3134,4143.9442,2357.84,4143.9442Zm0-313.1787c-85.2155,0-154.54,69.3265-154.54,154.54s69.3244,154.54,154.54,154.54,154.54-69.3263,154.54-154.54S2443.0559,3830.7655,2357.84,3830.7655Z"/><g class="g"><path d="M2484.5041,3893.2875a156.5679,156.5679,0,0,0-185.586,237.0985,156.5855,156.5855,0,1,1,185.586-237.0985Z"/><path d="M2306.2964,4136.1407l-8.3418-3.3783a158.4236,158.4236,0,0,1-99.2774-147.4649c0-87.7573,71.3939-159.1532,159.1512-159.1532a159.6707,159.6707,0,0,1,128.75,65.6358l5.2877,7.2771-8.33-3.3964a152.7322,152.7322,0,0,0-57.9405-11.31c-84.9313,0-154.0315,69.0943-154.0315,154.0256a152.4454,152.4454,0,0,0,29.4245,90.4992Zm51.532-304.8688c-84.9313,0-154.0276,69.0962-154.0276,154.0256a153.2814,153.2814,0,0,0,87.9094,139.1291,157.523,157.523,0,0,1-25.27-86.05c0-87.7573,71.3978-159.1532,159.1551-159.1532a158.0176,158.0176,0,0,1,51.3759,8.504A154.56,154.56,0,0,0,2357.8284,3831.2719Z"/></g><path d="M2357.84,4157.2735c-94.8222,0-171.9681-77.1439-171.9681-171.9681s77.1459-171.9681,171.9681-171.9681,171.9681,77.1439,171.9681,171.9681S2452.6626,4157.2735,2357.84,4157.2735Zm0-313.1786c-77.8623,0-141.2106,63.3462-141.2106,141.2105s63.3483,141.2106,141.2106,141.2106,141.2106-63.3462,141.2106-141.2106S2435.7028,3844.0949,2357.84,3844.0949Z"/><circle class="i" cx="2880.9436" cy="3985.3058" r="111.5928" transform="translate(-1974.2279 3204.4038) rotate(-45)"/><path class="e" d="M2880.9416,4099.4631a114.1567,114.1567,0,1,1,114.1557-114.1577A114.2842,114.2842,0,0,1,2880.9416,4099.4631Zm0-223.1858a109.0292,109.0292,0,1,0,109.0321,109.0281A109.152,109.152,0,0,0,2880.9416,3876.2773Z"/><circle class="h" cx="2880.9436" cy="3985.3058" r="111.5928" transform="translate(-1974.2279 3204.4038) rotate(-45)"/><path class="e" d="M2880.9416,4098.9488a113.6424,113.6424,0,1,1,113.6434-113.6434A113.77,113.77,0,0,1,2880.9416,4098.9488Zm0-223.1859a109.5436,109.5436,0,1,0,109.5445,109.5425A109.6646,109.6646,0,0,0,2880.9416,3875.7629Z"/><path d="M2880.9416,4112.2781a126.9717,126.9717,0,1,1,126.9727-126.9727A127.1131,127.1131,0,0,1,2880.9416,4112.2781Zm0-223.1858a96.2142,96.2142,0,1,0,96.2153,96.2131A96.323,96.323,0,0,0,2880.9416,3889.0923Z"/><circle cx="2880.9436" cy="3985.3058" r="53.0966"/><circle class="i" cx="2112.4114" cy="3670.6591" r="111.5928" transform="translate(-1976.837 2568.8116) rotate(-45)"/><path class="e" d="M2112.4131,3784.8154A114.1567,114.1567,0,1,1,2226.5647,3670.66,114.2833,114.2833,0,0,1,2112.4131,3784.8154Zm0-223.1858a109.0292,109.0292,0,1,0,109.028,109.03A109.1559,109.1559,0,0,0,2112.4131,3561.63Z"/><g class="g"><path d="M2329.8741,3748.1434c-5.528,72.3-63.0633,131.5066-135.1439,139.071a151.3116,151.3116,0,0,1-119.7231-40.15c-10.11-15.6379-.2912-26.9847,14.6929-26.4031a151.0533,151.0533,0,0,0,30.4758,1.5276c76.81-3.7824,139.6527-66.408,143.7263-143.2171.1456-2.6912.2184-5.4552.2184-8.1463.0728-24.3665,31.64-33.6769,44.2232-12.8745.8,1.31,1.528,2.5461,2.2543,3.7825A150.9577,150.9577,0,0,1,2329.8741,3748.1434Z"/></g><circle class="h" cx="2112.4114" cy="3670.6591" r="111.5928" transform="translate(-1976.837 2568.8116) rotate(-45)"/><path d="M2112.4131,3804.0729c-73.5635,0-133.4132-59.85-133.4132-133.4132,0-73.5654,59.85-133.4152,133.4132-133.4152s133.4091,59.85,133.4091,133.4152C2245.8222,3744.2231,2185.9764,3804.0729,2112.4131,3804.0729Zm0-223.1859a89.7718,89.7718,0,1,0,89.7706,89.7727A89.8752,89.8752,0,0,0,2112.4131,3580.887Z"/><circle cx="2112.4114" cy="3670.6591" r="53.0965"/><circle class="j" cx="3123.9488" cy="3561.2773" r="61.7642"/><path d="M2466.0914,3957.6507v55.31a12.41,12.41,0,0,1-12.41,12.41h-52.3856v52.3857a12.41,12.41,0,0,1-12.41,12.41h-55.2566a12.41,12.41,0,0,1-12.41-12.41v-52.3857H2268.833a12.41,12.41,0,0,1-12.41-12.41v-55.31a12.41,12.41,0,0,1,12.41-12.41h52.3857v-52.3856a12.41,12.41,0,0,1,12.41-12.41h55.2566a12.41,12.41,0,0,1,12.41,12.41v52.3856h52.3856A12.41,12.41,0,0,1,2466.0914,3957.6507Z"/><circle class="k" cx="3250.8684" cy="3688.1969" r="61.7642"/><circle class="l" cx="2997.0292" cy="3688.1969" r="61.7642"/><g class="g"><path d="M3222.72,3604.6612a61.78,61.78,0,0,1-120.0882,20.4108,61.7485,61.7485,0,0,0,91.2542-54.2664,62.5353,62.5353,0,0,0-3.4558-20.4108A61.6886,61.6886,0,0,1,3222.72,3604.6612Z"/><path d="M3222.72,3858.4988a61.78,61.78,0,0,1-120.0882,20.4109,61.749,61.749,0,0,0,91.2542-54.2668,62.0488,62.0488,0,0,0-3.4558-20.41A61.6889,61.6889,0,0,1,3222.72,3858.4988Z"/><path d="M3349.6115,3731.6071a61.7912,61.7912,0,0,1-120.0882,20.4108,61.7922,61.7922,0,0,0,91.3083-54.2668,62.0493,62.0493,0,0,0-3.4559-20.41A61.7047,61.7047,0,0,1,3349.6115,3731.6071Z"/><path d="M3095.7738,3731.6071a61.7911,61.7911,0,0,1-120.0881,20.4108,61.7922,61.7922,0,0,0,91.3082-54.2668,62.0492,62.0492,0,0,0-3.4558-20.41A61.7046,61.7046,0,0,1,3095.7738,3731.6071Z"/></g><circle class="m" cx="3123.9488" cy="3815.1166" r="61.7642"/><g class="f"><path class="b" d="M3168.6212,3518.6765a58.6457,58.6457,0,0,0-16.3916-2.2809,61.7318,61.7318,0,0,0-44.6946,104.3451,61.7262,61.7262,0,1,1,61.0862-102.0642Z"/></g><g class="f"><path class="b" d="M3295.5255,3645.5807a58.65,58.65,0,0,0-16.3916-2.2813,61.7322,61.7322,0,0,0-44.6946,104.3456,61.7264,61.7264,0,1,1,61.0862-102.0643Z"/></g><g class="f"><path class="b" d="M3041.7169,3645.5807a58.6477,58.6477,0,0,0-16.3906-2.2813,61.7323,61.7323,0,0,0-44.6956,104.3456,61.7264,61.7264,0,1,1,61.0862-102.0643Z"/></g><g class="f"><path class="b" d="M3168.6212,3772.57a58.6312,58.6312,0,0,0-16.3916-2.2813,61.7318,61.7318,0,0,0-44.6946,104.3451,61.7262,61.7262,0,1,1,61.0862-102.0638Z"/></g><path d="M3123.9473,3895.0664a79.95,79.95,0,1,1,79.9519-79.95A80.0395,80.0395,0,0,1,3123.9473,3895.0664Zm0-123.53a43.58,43.58,0,1,0,43.5824,43.58A43.6287,43.6287,0,0,0,3123.9473,3771.5362Z"/><path d="M3123.9473,3641.2272a79.95,79.95,0,1,1,79.9519-79.95A80.04,80.04,0,0,1,3123.9473,3641.2272Zm0-123.53a43.58,43.58,0,1,0,43.5824,43.58A43.6288,43.6288,0,0,0,3123.9473,3517.6969Z"/><path d="M3250.868,3768.1458a79.9488,79.9488,0,1,1,79.9478-79.95A80.04,80.04,0,0,1,3250.868,3768.1458Zm0-123.5283a43.5795,43.5795,0,1,0,43.5784,43.5785A43.6285,43.6285,0,0,0,3250.868,3644.6175Z"/><path d="M2997.0307,3768.1458a79.9488,79.9488,0,1,1,79.9478-79.95A80.04,80.04,0,0,1,2997.0307,3768.1458Zm0-123.5283a43.5795,43.5795,0,1,0,43.5784,43.5785A43.6292,43.6292,0,0,0,2997.0307,3644.6175Z"/><circle cx="2519.207" cy="3728.9684" r="40.7715" transform="translate(-1688.8029 5324.0426) rotate(-76.7175)"/><circle cx="2710.3692" cy="3728.9684" r="40.7715" transform="translate(-1842.9301 3008.71) rotate(-45)"/><g class="g"><path d="M2586.0715,3753.3287a40.7331,40.7331,0,0,1-78.7808,14.6328,39.6489,39.6489,0,0,0,11.9333,1.782,40.7657,40.7657,0,0,0,40.7674-40.7673,39.84,39.84,0,0,0-2.7539-14.6332A40.7658,40.7658,0,0,1,2586.0715,3753.3287Z"/><path d="M2777.2192,3753.3287a40.733,40.733,0,0,1-78.7807,14.6328,39.645,39.645,0,0,0,11.933,1.782,40.7656,40.7656,0,0,0,40.7673-40.7673,39.8459,39.8459,0,0,0-2.7535-14.6332A40.7657,40.7657,0,0,1,2777.2192,3753.3287Z"/></g></svg>