<svg xmlns="http://www.w3.org/2000/svg" width="5300" height="6100" viewBox="0 0 5300 6100"><defs><style>.a{fill:#fff;}.b{stroke:#fff;stroke-miterlimit:10;stroke-width:60px;}.c{fill:#999;}.d{fill:#0f227a;}.e{opacity:0.55;}.f{opacity:0.3;}.g{fill:#d0d4d8;}.h{fill:#5e6c7a;}.i{fill:#e5c62c;}.j{fill:#e52c5c;}.k{fill:#5e7def;}.l{fill:#55bc5c;}</style></defs><path class="a" d="M2862.2646,2424.8529l-1.3277-1.7723C2861.3791,2423.6638,2861.8224,2424.2719,2862.2646,2424.8529Z"/><path class="a" d="M2862.2646,2424.8529c27.6214,36.2139,55.2415,67.3334,82.8628,108.7648-27.6213-41.4314-55.2414-72.5509-82.8628-108.7648l82.4838,110.0644c53.7513-56.91,457.7872-485.53,562.0961-620.5222,45.1417-58.4182,15.9558-60.0235-31.2266-56.2873,26.6432-17.4448,44.0237-43.3547,44.2933-62.3067,0,0-32.9583-158.5295-10.0174-426.4274,6.48-75.5832,24.4051-163.0227,22.9431-248.5229-.6329-37.1909-14.5851-25.2163-39.3309-10.4056,9.3846-41.9841-25.4486-168.1227-47.9946-247.2414-29.9249-105.1381-72.7032-205.9262-116.0028-306.0928-79.3454-183.4366-189.1052-350.8724-313.14-506.611,102.5379,163.7435,190.1511,336.4419,247.9635,521.5029,30.7382,100.8965,62.0529,202.4326,79.49,306.6693,12.797,76.5015,1.3525,191.6581,32.2916,236.9442-9.2414.2256-15.6309,8.1234-18.8809,34.8174-6.5892,54.2465,29.6,70.7178,19.4381,205.2663-7.31,96.4033-55.0316,153.8908-69.5975,437.6373a68.4645,68.4645,0,0,0,1.6244,18.8154c-12.1473-16.46-17.9784-28.4189-28.8419-18.5729,0,0-140.66,221.81-237.6572,364.8348-72.4279,106.7986-162.0559,196.2574-202.833,234.7489q10.7858,15.7014,21.5714,29.917Zm493.56-1607.4676c-19.5126-102.4205-47.7409-202.7857-77.6657-302.545,42.1082,93.0359,75.229,188.9958,100.6065,287.88,13.88,54.1111,26.3872,110.2731,32.4721,165.82,3.3741,31.2245,21.9639,97.5946-8.4483,119.64-10.8477-7.6981-15.5586-18.6078-15.6849-31.6395-.2527-25.5141-2.7616-50.5115-4.9084-75.8879C3377.466,925.8253,3366.0949,871.3791,3355.8248,817.3853Zm19.4934,327.3167c55.8991,15.6049,112.6274,5.7318,141.3813-17.2722C3495.2026,1180.0428,3412.3184,1189.9068,3375.3182,1144.702Zm25.1068,252.0426c21.93-61.349-93.3518,396.5928,62.5763,427.7642-24.131,13.1671-83.2791,17.5621-113.927-11.8235C3318.4082,1783.3019,3378.4768,1458.14,3400.425,1396.7446ZM3289.8179,1855.22c22.0914-9.8832,42.3271,85.8162,205.528,35.0611-23.4451,46.4852-152.7322,13.871-225.238,74.5443-83.3163,69.68-215.3842,282.2021-374.85,420.3086C3090.1368,2182.249,3271.5157,1863.4054,3289.8179,1855.22Z"/><path class="a" d="M2839.3655,2393.1636c-.1556.1467-.3418.3261-.4952.4716l22.0666,29.4454Q2850.1511,2408.8735,2839.3655,2393.1636Z"/><path class="a" d="M5210.0919,3660.1515a78.4475,78.4475,0,0,0-36.2806-29.7274c69.601-25.8841,40.1059-49.8538-66.458-108.4254-84.6148-46.4954-701.0409-682.9541-701.0409-682.9541-63.6063-55.24-118.313-52.02-164.0492-25.7115,38.0482-79.12,13.7525-102.5209-97.325-86.7547-120.93,17.21-950.97,77.061-1043.4209,64.4185-25.3223-3.4745-44.51-3.2489-59.2361.7118l36.4046,209.6005c30.63,5.4689,67.56,5.3606,106.9792,5.09,0,0,861.0312,82.2153,961.91,71.7816,45.3391-4.6929,52.9932-29.221,53.86-65.9888a139.9479,139.9479,0,0,0,12.2567,12.4721c411.7238,364.2561,460.5668,319.0433,612.0908,466.363,174.2856,169.5024,126.2221,200.6738,176.6512,220.6534,15.5586,6.1549,29.1307,3.2862,42.1635-4.0419-12.814,64.4546,42.687,132.7718,59.5632,217.206,27.5965,138.1528,18.952,250.9427,7.8707,391.3494-16.0651,203.0936-70.52,419.9387-162.79,602.8158,125.03-178.8882,202.0659-396.2036,248.7046-607.6711,26.28-119.09,35.7729-239.3188,38.011-360.971C5237.7436,3852.9547,5253.3925,3724.3151,5210.0919,3660.1515ZM4155.786,3034.5371c-69.6518-27.0189,28.0138-189.0681-63.1-214.4625-90.5722-25.17-777.319,21.0716-994.9571,0,290.09.5945,1075.8006-64.5641,1093.6154-55.4119C4212.8234,2775.7271,4128.8754,2918.7329,4155.786,3034.5371Zm65.1416-97.1591c-4.3849-36.8751,39.4741-105.8149,95.1195-105.7969,42.4534.0542,456.7065,410.9771,495.1146,463.6262C4663.1934,3191.6215,4333.8438,2763.7682,4220.9276,2937.378Zm817.6392,735.9654c-.7017-56.8005,71.7827-98.189,123.4583-71.0066C5104.4856,3609.7383,5056.1289,3640.9807,5038.5668,3673.3434Zm96.4754,636.28c17.9232-96.2949,21.0446-194.9533,12.0751-292.4914-5.2163-56.6381-12.5624-113.3506-26.5688-168.6011-5.2873-24.7447-13.68-48.9309-22.7062-72.5407-3.2861-8.5555-30.5758-53.0654-17.0759-60.9519,27.8864-16.2626,58.8412,104.1623,62.2537,117.9532,13.8078,56.1326,22.7423,115.4443,23.97,173.2747C5172.6032,4108.4267,5164.5351,4211.4721,5135.0422,4309.6239Z"/><path class="a" d="M4633.3854,4566.5748c-69.6889-119.3972-338.8074-1007.25-338.8074-1007.25-11.6419-28.6636-46.4413-59.3466-89.9405-72.7393,56.1519-44.9792,54.8692-105.8961-95.1748-137.4827-187.8779-39.62-936.9111-309.6023-936.9111-309.6023-2.7853-1.0818-5.5491-2.0486-8.3253-3.0436-63.8827,52.6153-82.8369,147.9943-56.71,218.9546.2223-.4.4862-.7581.7073-1.16,94.2,27.328,430.7672,136.4189,818.1288,397.5393,36.4047,24.5483,57.6116,20.9926,76.8546,3.7373.5415,1.3526.9014,2.7616,1.515,4.0972,244.3006,531.34,292.7453,546.6639,355.1242,676.0424,62.36,129.3424,90.66,230.1847,99.739,298.3925,7.635,57.3984,28.8634,48.7166,61.7123,38.2829-19.4032,34.9268-27.8334,84.327-33.7536,116.9977-88.1525,485.0058-370.7359,926.2788-727.41,1260.1588,387.9008-308.0151,704.8854-729.7948,839.7678-1209.837,13.3047-47.2895,45.9912-96.2938,34.4925-143.4751a66.4175,66.4175,0,0,0-13.915-26.7684C4700.2034,4676.857,4669.7,4628.7913,4633.3854,4566.5748ZM3975.12,3623.5629c-54.8342-50.7923,114.7776-148.186,39.4573-205.3317-74.9042-56.7464-574.7838-208.1271-769.34-307.9057,269.46,107.45,917.2733,288.54,930.4494,303.6641C4191.5866,3432.1654,3992.7911,3506.0238,3975.12,3623.5629Zm125.5712-24.0238c14.567-34.1135,86.9984-71.9271,135.2085-44.1129,36.7487,21.2623,207.93,601.1721,214.8979,665.9336C4374.3374,4057.7426,4266.9262,3533.081,4100.6907,3599.5391Zm460.2419,1208.7168c-6.4425,25.6855-12.9764,51.3518-19.9976,76.8918-16.2976,59.31-33.14,119.1975-54.9437,176.7211-34.8151,101.1852-79.09,197.3538-131.1473,290.7225,41.6953-97.3937,81.6027-195.33,111.3121-297.2192,17.5429-55.5562,32.6514-111.7995,47.831-168.0055,6.931-25.7013,13.1581-51.5842,19.5126-77.4671,5-20.3959,6.64-47.1091,27.5243-57.9568C4573.5323,4769.2871,4565.5725,4789.6661,4560.9326,4808.2559Zm-65.6255-157.6789c21.26-52.7056,104.1442-62.9205,141.29-17.869C4580.68,4617.3118,4524.0046,4627.4917,4495.3071,4650.577Z"/><path class="a" d="M2241.881,2752.9381c-12.0469-.9825-26.35-.2786-43.3988,2.0588-92.45,12.6425-922.4885-47.2083-1043.421-64.4185-111.0763-15.7662-135.3608,7.6349-97.3215,86.7547-45.7374-26.3082-100.4464-29.5289-164.0527,25.7115,0,0-616.425,636.4587-701.0408,682.9541C86.0822,3544.57,56.5894,3568.54,126.1791,3594.4241a78.4685,78.4685,0,0,0-36.27,29.7274c-43.3018,64.1636-27.6518,192.8032-25.8649,290.2161,2.2381,121.6522,11.7333,241.8807,38.011,360.971,46.641,211.4675,123.6749,428.7829,248.7046,607.6711-92.2688-182.8771-146.724-399.7222-162.788-602.8158-11.0813-140.4067-19.7281-253.1966,7.8707-391.3494,16.8739-84.4342,72.3783-152.7514,59.553-217.206,13.0407,7.3281,26.6049,10.1968,42.1737,4.0419,50.429-19.98,2.3633-51.151,176.6489-220.6534,151.5252-147.32,200.367-102.1069,612.0943-466.363a140.1638,140.1638,0,0,0,12.2465-12.4721c.8743,36.7678,8.5272,61.2959,53.8675,65.9888,100.8784,10.4337,961.9107-71.7816,961.9107-71.7816,32.37.2166,63.0727.34,89.9935-2.64,56.9426-67.7994,31.6305-149.6785,43.1235-232.4161C2245.6082,2741.2105,2243.6171,2747.0518,2241.881,2752.9381ZM202.1571,3739.9907c-9.0225,23.61-17.4155,47.796-22.7062,72.5407-14.0052,55.2505-21.35,111.963-26.5688,168.6011-8.9694,97.5381-5.8469,196.1965,12.0773,292.4914-29.4928-98.1518-37.562-201.1972-31.95-303.3572,1.2273-57.83,10.1618-117.1421,23.9708-173.2747,3.4113-13.7909,34.3661-134.2158,62.2525-117.9532C232.7329,3686.9253,205.4432,3731.4352,202.1571,3739.9907Zm-64.1827-173.6539c51.6756-27.1824,124.1633,14.2061,123.4583,71.0066C243.8705,3604.9807,195.516,3573.7383,137.9744,3566.3368Zm941.1-664.9588c-112.9185-173.61-442.2658,254.2435-590.2364,357.8293,38.4093-52.6491,452.6623-463.572,495.1147-463.6262C1039.5988,2795.5631,1083.46,2864.5029,1079.0741,2901.378Zm128.2391-117.3034c-91.1114,25.3944,6.552,187.4436-63.1,214.4625,26.9106-115.8042-57.0374-258.81-35.5586-269.8744,17.816-9.1522,803.5279,56.0064,1093.6188,55.4119C1984.6322,2805.1462,1297.8854,2758.9046,1207.3132,2784.0746Z"/><path class="a" d="M2407.259,2381.8615c-3.5862,3.5117-7.2142,6.9355-10.7485,10.551-43.6616-41.8645-126.6959-126.715-194.7073-226.9978C2104.8054,2022.39,1964.146,1800.58,1964.146,1800.58c-10.8568-9.846-16.7037,2.1129-28.8532,18.5729a67.9838,67.9838,0,0,0,1.6346-18.8154c-14.567-283.7465-62.2887-341.234-69.5987-437.6373-10.1619-134.5485,26.0273-151.02,19.4381-205.2663-3.2376-26.694-9.6361-34.5918-18.8774-34.8174,30.9266-45.2861,19.5-160.4427,32.2882-236.9442,17.4369-104.2367,48.7516-205.7728,79.4909-306.6693C2037.48,393.9419,2125.093,221.2435,2227.6308,57.5c-124.0347,155.7386-233.7935,323.1744-313.14,506.611-43.3,100.1666-86.0767,200.9547-116.0027,306.0928-22.5528,79.1187-57.37,205.2573-47.9935,247.2414-24.7368-14.8107-38.69-26.7853-39.33,10.4056-1.462,85.5,16.4611,172.94,22.9409,248.5229,22.9408,267.8979-10.0175,426.4274-10.0175,426.4274.2629,18.952,17.6625,44.8619,44.2934,62.3067-47.1892-3.7362-76.3684-2.1309-31.2256,56.2873,97.8574,126.6474,459.2526,511.4324,547.9589,605.5344C2327.3529,2481.8893,2394.1111,2454.3684,2407.259,2381.8615Zm-512.3316-562.1762c-30.6479,29.3856-89.796,24.9906-113.9293,11.8235,155.9293-31.1714,40.6474-489.1132,62.5764-427.7642C1865.5226,1465.14,1925.5912,1790.3019,1894.9274,1819.6853ZM1832.764,975.54c6.0827-55.5472,18.59-111.7092,32.471-165.82,25.3786-98.884,58.4971-194.8439,100.6076-287.88-29.9271,99.7593-58.1553,200.1245-77.6668,302.545-10.269,53.9938-21.6413,108.44-26.3691,163.2674-2.1479,25.3764-4.6579,50.3738-4.9117,75.8879-.1252,13.0317-4.8361,23.9414-15.6839,31.64C1810.7978,1073.135,1829.39,1006.7649,1832.764,975.54ZM1727.301,1134.43c28.7528,23.004,85.4822,32.8771,141.38,17.2722C1831.681,1196.9068,1748.7979,1187.0428,1727.301,1134.43Zm246.5917,837.3955c-72.5036-60.6733-201.7941-28.0591-225.2392-74.5443,163.2032,50.7551,183.4366-44.9443,205.5292-35.0611,18.301,8.1855,199.6811,327.0291,394.5611,529.914C2189.2757,2254.0274,2057.2078,2041.5052,1973.8927,1971.8253Z"/><path class="a" d="M3745.3772,4319.7951c0,688.2246-511.3783,1246.1525-1142.2079,1246.1525-630.8454,0-1142.2586-557.9279-1142.2586-1246.1525,0-507.2089,277.9255-943.32,676.5488-1137.82-.0316-.0395-.0586-.0824-.09-.1219,310.3062-8.4133,629.4454-39.1526,939.2011-10.33-2.5833,3.4633-4.9985,7.0968-7.6879,10.4518C3467.4867,3376.4753,3745.3772,3812.5862,3745.3772,4319.7951Zm-1423.336,519.3731c319.5926,0,651.3416-392.6467,651.3416-781.5234,0-388.8405-305.2524-704.0731-624.8281-704.0731-319.5735,0-661.5475,445.2439-661.5475,834.0833C1687.0072,4576.5294,2002.4744,4839.1682,2322.0412,4839.1682Zm1015.1814-1240.36c102.5029,170.6395,162.32,374.58,162.32,593.8643,0,599.4213-445.4244,1085.3138-994.8228,1085.3138-284.4053,0-540.7256-130.4085-722.0335-339.1674,177.707,295.8848,484.0864,491.4326,832.486,491.4326,549.4266,0,994.8319-485.8914,994.8319-1085.3318C3610.0041,4055.8038,3506.1667,3793.2925,3337.2226,3598.8085Z"/><path class="a" d="M2853.6875,2359.751c-8.6514-6.8453-17.4031-13.4367-26.3026-19.6164,35.448-34.89,56.7667-78.461,56.7667-125.8949,0-49.0494-22.6341-94.0467-60.2875-129.497,22.1828-30.1685,33.6814-64.3632,27.0031-102.6822-10.8116-62.18-52.0377-110.4266-111.8524-150.6678,31.7309,39.97,60.4465,89.2906,49.258,137.8425-5.3979,23.4733-15.6308,49.88-38.3742,67.082-40.6835-18.248-87.9922-28.9074-138.692-28.9074-50.2227,0-97.1151,10.4518-137.5369,28.3749-21.8568-18.7624-35.2325-42.6791-38.9868-67.9291-7.3281-49.5289,16.9676-95.4376,49.5818-136.4629-58.86,39.6-104.0912,89.5614-112.0329,151.68-8.3389,37.1537,3.7283,71.3382,26.4153,101.5451-37.7323,35.4661-60.4194,80.5175-60.4194,129.6222,0,43.2092,17.8284,83.1391,47.7905,116.2994C2533.8432,2355.6808,2709.7092,2388.94,2853.6875,2359.751Zm-412.8227-139.3745c0,20.062,5.874,39.0049,16.11,56.1789-19.1426-21.7868-30.4878-47.8051-30.4878-75.8889,0-76.0345,81.3681-137.6722,181.74-137.6722,73.7139,0,136.9412,33.3553,165.4063,81.1221-32.5071-36.9912-87.9358-61.4121-151.0378-61.4121C2522.2216,2082.7043,2440.8648,2144.3353,2440.8648,2220.3765Z"/><path class="a" d="M2265.2329,2545.5157a412.7682,412.7682,0,0,0-43.366-24.3329l-787.1537-431.0481c-36.0448-17.544-43.41-6.887-48.2191,16.6608-137.177-394.4539-167.6625-304.3691-224.5623-504.9538-21.9673-77.5563-15.4334-203.2448-40.7568-225.4276-10.2961-9.0337-18.908-9.0337-29.33-6.8328a50.2087,50.2087,0,0,0,10.5037-13.1017c25.0537-45.8929.67-190.2514,14.1688-286.13,14.6573-104.3811,41.5149-204.69,78.0289-301.9313,63.1923-168.1216,163.78-335.9917,288.9357-449.0986-145.605,99.7142-265.4725,262.8113-351.8031,430.9048-49.8323,96.9436-85.5544,199.9507-114.0895,307.3281-25.611,96.4382-70.43,257.8545-46.7661,294.7476a50.4305,50.4305,0,0,0,3.8186,4.9624c-42.5-10.0524-49.6191,3.619-15.6963,59.834,0,0,172.88,684.1387,211.2159,747.9886,35.8293,59.7155,78.9562,93.6857,126.1476,81.6828-31.8584,14.7633-67.8309,20.1252-82.6856,33.6622-17.76,16.2355-5.2344,44.2381,39.15,58.9484,295.4876,97.8563,870.0367,349.61,870.0367,349.61,23.9889,11.669,46.8756,22.6972,68.3894,31.053-1.0683,3.1541-2.017,6.3308-3.0086,9.5C2242.7862,2695.4559,2249.0663,2609.4458,2265.2329,2545.5157Zm-1289.59-1165.41c28.7878,22.9758,85.4823,32.8861,141.4,17.2552C1080.0583,1442.5756,997.138,1432.7014,975.6433,1380.1053Zm278.8089,832.9192c136.3647-144.6755-121.544-543.5143-82.1961-491.5781,39.3478,52.0016,197.5332,364.7885,185.3306,405.419C1341.5769,2180.1383,1298.8549,2213.3764,1254.4522,2213.0245Zm231.8091,0c-93.2435-15.7572-116.2024,109.0638-223.0732,73.9666,168.8526-26.3984,135.3529-163.42,159.485-164.2861,20.0349-.7231,514.2651,301.4439,777.1012,424.18C1993.8289,2473.4781,1578.9272,2228.6824,1486.2613,2213.0245Z"/><path class="a" d="M2082.33,3016.7015c-71.0788,25.5411-752.78,269.8574-930.7935,307.4014-150.053,31.5866-151.3176,92.5035-95.1646,137.4827-43.5184,13.3927-78.3166,44.0757-89.95,72.7393,0,0-269.1174,887.8527-338.8052,1007.25-36.3166,62.2165-66.8112,110.2822,12.9042,102.8447a66.406,66.406,0,0,0-13.9161,26.7684c-11.4975,47.1813,21.1912,96.1856,34.4925,143.4751,134.8825,480.0422,451.867,901.8219,839.7679,1209.837-356.6742-333.88-639.2565-775.153-727.41-1260.1588-5.9112-32.6707-14.3493-82.0709-33.7435-116.9977,32.832,10.4337,54.0762,19.1155,61.7021-38.2829,9.0789-68.2078,37.3793-169.05,99.7413-298.3925,62.3789-129.3785,110.8248-144.7025,355.1219-676.0424.6137-1.3356.9758-2.7446,1.5082-4.0972,19.2408,17.2553,40.4658,20.811,76.8637-3.7373,369.9134-249.3533,693.46-360.05,803.9047-393.3327,2.3272,4.1074,4.94,7.9283,7.4014,11.9014-2.3961-79.9692-19.8274-159.9373-63.8827-239.9066C2082.1745,3009.1873,2082.1937,3012.9946,2082.33,3016.7015ZM624.4023,4607.708c37.147-45.0515,120.03-34.8366,141.2934,17.869C736.9949,4602.4917,680.32,4592.3118,624.4023,4607.708ZM810.2046,4196.36c6.9671-64.7615,178.147-644.6713,214.8968-665.9336,48.21-27.8142,120.6426,9.9994,135.21,44.1129C994.0744,3508.081,886.6621,4032.7426,810.2046,4196.36Zm436.2181-803.1286c-75.32,57.1457,94.2915,154.5394,39.4572,205.3317-17.6715-117.5391-216.4671-191.3975-200.5667-209.5733,13.1761-15.1243,660.9892-196.2145,930.45-303.6641C1821.2087,3185.1041,1321.3291,3336.4848,1246.4227,3393.2312Z"/><path class="a" d="M3132.1891,2690.9886s574.55-251.7538,870.0379-349.61c44.3836-14.71,56.91-42.7129,39.1493-58.9484-14.8547-13.537-50.8273-18.8989-82.6834-33.6622,47.1982,12.0029,90.3183-21.9673,126.1453-81.6828,38.3382-63.85,211.2159-747.9886,211.2159-747.9886,33.9138-56.215,26.8034-69.8864-15.703-59.834a49.5093,49.5093,0,0,0,3.8265-4.9624c23.6628-36.8931-21.154-198.3094-46.7673-294.7476-28.5351-107.3774-64.2538-210.3845-114.0895-307.3281C4036.99,584.1309,3917.1227,421.0338,3771.5189,321.32c125.1549,113.1069,225.7445,280.977,288.9357,449.0986,36.514,97.2415,63.3716,197.55,78.0278,301.9313,13.5021,95.8787-10.885,240.2372,14.1688,286.13a50.0774,50.0774,0,0,0,10.5059,13.1017c-10.4157-2.2009-19.0433-2.2009-29.3326,6.8328-25.3223,22.1828-18.7895,147.8713-40.7534,225.4276-56.8942,200.5847-87.3786,110.5-224.5556,504.9538-4.8181-23.5478-12.1822-34.2048-48.227-16.6608l-787.1548,431.0481c-21.1528,10.3119-40.4861,21.5082-57.0645,33.607,2.2641,66.8518,21.4563,118.8421,72.9582,170.5763C3074.7016,2718.8107,3102.6252,2705.365,3132.1891,2690.9886ZM4087.1858,793.8194c51.1149,86.0959,82.07,183.1929,105.0478,280.19a881.6862,881.6862,0,0,1,24.5653,159.9284c1.5523,43.6436,17.29,123.26-21.1,138.5735-14.9641-38.0742-2.1851-87.6921-3.9889-127.7-2.3656-52.8307-9.3316-105.2813-18.917-157.2186C4154.3478,987.3907,4128.8248,887.0628,4087.1858,793.8194Zm192.1726,588.2859c-21.4969,52.5961-104.4173,62.47-141.4,17.2552C4193.8761,1414.9914,4250.5683,1405.0811,4279.3584,1382.1053Zm-196.6128,341.3411c39.3478-51.9362-218.5608,346.9026-82.1972,491.5781-44.4005.3519-87.1258-32.8862-103.1346-86.1591C3885.2124,2088.2349,4043.3989,1775.448,4082.7456,1723.4464ZM3832.3264,2124.705c24.1332.8664-9.3666,137.8877,159.4849,164.2861-106.87,35.0972-129.83-89.7238-223.072-73.9666-92.6671,15.6579-507.5688,260.4536-713.5131,333.8607C3318.0624,2426.1489,3812.2937,2123.9819,3832.3264,2124.705Z"/><path class="b" d="M2746.0229,3486.2366h-268.99a269.3985,269.3985,0,0,0-249.7483,168.3964h0a195.3511,195.3511,0,0,1-181.1023,122.111h0c-141.1562,0-235.7175-145.1071-178.714-274.24l454.8344-1030.3686a319.8021,319.8021,0,0,1,292.5654-190.6565h0a319.802,319.802,0,0,1,292.4114,190.3071l456.367,1030.5047c57.1974,129.156-37.3639,274.453-178.6206,274.453h-8.1523a195.3514,195.3514,0,0,1-181.1024-122.111h0A269.3983,269.3983,0,0,0,2746.0229,3486.2366Zm27.9954-385.9326-112.43-279.8293c-18.1276-45.1146-81.9929-45.1146-100.12,0l-112.43,279.8293c-14.2426,35.4489,11.8572,74.062,50.0589,74.062H2723.96C2762.1612,3174.366,2788.2609,3135.7529,2774.0183,3100.304Z"/><path class="c" d="M3479.4648,4575.8236a118.7215,118.7215,0,0,1-134.1979-6.5464c-72.4451-54.915-156.4551-144.5263-242.5013-240.3193-43.06-52.0063-97.1755-82.2643-171.0022-73.7543H2297.7969c-73.754-8.51-127.9423,21.748-170.9294,73.7543-2.3277,2.6184-4.6548,5.1639-6.9825,7.71-83.6463,92.883-165.1106,179.1486-235.5188,232.6093a118.8388,118.8388,0,0,1-134.2707,6.5464c-103.43-63.7895-133.9067-183.6582-122.2691-331.0212.0728-1.382.2184-2.764.3636-4.2188,2.4-30.04,6.692-61.1708,12.438-93.2476a1.2366,1.2366,0,0,1,.0728-.5091c.4363-2.4728.9456-5.0188,1.382-7.4916,27.2759-147.9451,85.1007-314.1464,148.4538-475.62,18.766-47.7876,37.9684-95.1387,57.0251-141.5443,5.5281-13.3831,10.9833-26.84,16.4384-40.0047l54.9156-31.4943.8727-2.91,11.8561-43.4959a66.5526,66.5526,0,0,1,35.9315-42.8416c78.7-37.2407,159.9463-64.7351,244.1745-80.7367,2.182-.4363,4.2912-.8732,6.4732-1.2368a67.46,67.46,0,0,1,46.9876,8.8012l61.8983,37.75a124.8088,124.8088,0,0,0,65.39,18.4748h444.6348a125.1881,125.1881,0,0,0,65.39-18.4748l61.8255-37.75a67.5113,67.5113,0,0,1,47.06-8.8012c86.41,15.8564,169.8382,43.7872,250.5749,81.9735a67.0719,67.0719,0,0,1,36.0044,42.8416l12.6559,46.4056,54.9156,31.4943c5.8192,14.0379,11.7108,28.2944,17.53,42.6236,84.2283,204.8969,171.4386,429.5783,205.77,622.1829C3623.0454,4338.4863,3604.9342,4498.36,3479.4648,4575.8236Z"/><path class="d" d="M1812.3715,4595.7026a120.0967,120.0967,0,0,1-63.3562-18.1366c-95.939-59.1693-136.2471-168.0694-123.23-332.9265.064-1.2969.2041-2.6519.3482-4.0708,2.3256-29.1064,6.4005-59.6717,12.4767-93.5954-.016.04-.0521-.2022.104-.68.2122-1.1908.44-2.3977.6645-3.6045.2362-1.2428.4724-2.4837.6885-3.7086,30.3492-164.6169,99.3214-350.5067,148.56-476.0123,16.3435-41.6171,34.4681-86.6025,57.0358-141.5749q3.8248-9.2584,7.6094-18.5209c2.95-7.2111,5.8921-14.3941,8.8341-21.491l.2682-.6465,54.81-31.4339.64-2.1275,11.84-43.4443a68.39,68.39,0,0,1,37.0419-44.1589c80.6162-38.1506,162.9378-65.3676,244.6588-80.8945l.9847-.1981c1.8533-.3723,3.6666-.7366,5.5359-1.0468a69.36,69.36,0,0,1,48.39,9.07l61.9032,37.7523a122.7183,122.7183,0,0,0,64.3209,18.1747h444.6345a123.1322,123.1322,0,0,0,64.3209-18.1726l61.8232-37.7524a69.3928,69.3928,0,0,1,48.49-9.0683c83.9466,15.4027,168.4216,43.036,251.0913,82.1373a69.0294,69.0294,0,0,1,37.1019,44.1469l12.4367,45.5958,54.7862,31.42.2683.6465c5.82,14.0437,11.7161,28.3038,17.5322,42.6377,87.0328,211.7118,172.2162,433.6728,205.8917,622.5948,39.2555,219.9175,3.1623,360.8819-110.337,430.9529l.004-.002c-41.9773,26.04-96.8356,23.3663-136.5153-6.6507-73.4913-55.7109-160.12-148.5537-242.7895-240.5859-47.109-56.9018-102.4836-80.7765-169.2382-73.0891l-634.2029.014c-67.0868-7.7314-122.3694,16.1653-169.35,73.0109-2.2535,2.54-4.4631,4.9575-6.6726,7.3732l-.3763.4144c-79.6076,88.4-163.282,177.8-235.7927,232.86A121.3656,121.3656,0,0,1,1812.3715,4595.7026Zm-169.7065-448.227-.02.2222c-6.0522,33.79-10.111,64.2248-12.4126,93.047-.16,1.5891-.2923,2.878-.36,4.1629-12.889,163.23,26.7907,270.8851,121.3007,329.17,41.1968,25.51,92.997,22.9861,131.9562-6.4345,72.2384-54.85,155.7487-144.0865,235.2362-232.3462l.3882-.4263c2.19-2.4,4.3871-4.8053,6.5807-7.2731,47.8974-57.9485,104.4168-82.2974,172.7-74.43l633.7306-.014c68.0434-7.8574,124.5669,16.5076,172.5764,74.4981,82.4816,91.8181,168.946,184.4928,242.1611,239.9936,38.3388,29,91.3318,31.588,131.88,6.4364l.004-.002c111.9022-69.0862,147.3789-208.6756,108.4558-426.7459-33.6075-188.5417-118.7029-410.2565-205.6517-621.7661-5.728-14.1119-11.524-28.1457-17.256-41.9714l-55.0425-31.5681-12.881-47.2209a64.9219,64.9219,0,0,0-34.8963-41.527c-82.3535-38.9512-166.4922-66.4764-250.0746-81.8132a65.2949,65.2949,0,0,0-45.6239,8.534l-61.8232,37.75a127.2078,127.2078,0,0,1-66.4583,18.7751H2392.5006a126.8112,126.8112,0,0,1-66.4624-18.7791l-61.8953-37.7464a65.339,65.339,0,0,0-45.5557-8.5319c-1.8493.3062-3.6226.6644-5.4278,1.0267l-1.0087.2021c-81.4009,15.4648-163.3861,42.5738-243.6982,80.58a64.3117,64.3117,0,0,0-34.8323,41.523l-12.9771,47.241-55.0184,31.554c-2.85,6.8808-5.7,13.8417-8.562,20.8285q-3.7887,9.2526-7.6093,18.529c-22.56,54.9484-40.6764,99.9158-57.0078,141.5108-49.1783,125.3475-118.0624,310.9872-148.3476,475.2438-.2122,1.2249-.4523,2.4838-.6884,3.7426-.2362,1.2489-.4724,2.5-.6925,3.7327Z"/><g class="e"><path class="a" d="M3588.859,4145.9449c-34.33-192.6046-121.5407-417.2861-205.7692-622.1829-5.8192-14.3292-11.71-28.5858-17.53-42.6237l-54.9149-31.4944-12.6558-46.4055a67.0735,67.0735,0,0,0-36.0051-42.8414c-80.736-38.1865-164.1647-66.1174-250.5747-81.9735a67.5106,67.5106,0,0,0-47.06,8.801l-61.826,37.75c-1.0139.621-2.0664,1.1623-3.0952,1.7531a16.0664,16.0664,0,0,0-24.02,10.628,124.7853,124.7853,0,0,1-38.2742,6.0935H2392.4988a125.14,125.14,0,0,1-17.4437-1.2287,16.181,16.181,0,0,0-30.515-8.9618l-.24.4684a124.5208,124.5208,0,0,1-17.1909-8.7525l-61.8987-37.75a67.46,67.46,0,0,0-46.9875-8.801c-2.1815.3636-4.29.8-6.4731,1.2366-84.2278,16.0015-165.4738,43.496-244.1742,80.7369a66.5512,66.5512,0,0,0-35.9311,42.8414l-11.8561,43.496-.873,2.91L1864,3481.1383c-5.4556,13.1652-10.91,26.6218-16.4381,40.0048-19.0575,46.4055-38.26,93.7566-57.0256,141.5442-63.353,161.4739-121.1779,327.6752-148.4538,475.62-.4362,2.4727-.9456,5.0187-1.3818,7.4915a1.2411,1.2411,0,0,0-.0726.5094c-5.7459,32.0767-10.0375,63.2075-12.4381,93.2476-.1451,1.4546-.2909,2.8366-.3641,4.2187a685.7483,685.7483,0,0,0-1.9556,77.8032q.5586-17.4072,1.9556-35.3692c.0732-1.382.219-2.7641.3641-4.219,2.4006-30.04,6.6922-61.1706,12.4381-93.2473a1.24,1.24,0,0,1,.0726-.5094c.4362-2.4728.9456-5.0187,1.3818-7.4915,27.2759-147.9451,85.1008-314.1465,148.4538-475.62,18.766-47.7876,37.9681-95.1387,57.0256-141.5442,5.5276-13.3834,10.9825-26.84,16.4381-40.0047l54.9156-31.4945.873-2.91,11.8561-43.496a66.5529,66.5529,0,0,1,35.9311-42.8417c78.7-37.2407,159.9464-64.735,244.1742-80.7367,2.1827-.4364,4.2916-.8732,6.4731-1.2367a67.46,67.46,0,0,1,46.9875,8.8013l61.8706,37.7328-35.5577,69.5169a16.2,16.2,0,1,0,28.8461,14.7535l36.3455-71.058a124.9257,124.9257,0,0,0,35.7835,5.2794h444.6349a124.971,124.971,0,0,0,52.9475-11.8585l39.7109,77.6371a16.2,16.2,0,0,0,28.8461-14.7535l-40.4431-79.0689,46.154-28.1808a67.51,67.51,0,0,1,47.06-8.8013c86.41,15.8563,169.8387,43.7872,250.5747,81.9734a67.0752,67.0752,0,0,1,36.0051,42.8417l12.6558,46.4055,54.9149,31.4945c5.82,14.0378,11.7109,28.2941,17.53,42.6235,84.2285,204.897,171.4388,429.5783,205.7692,622.1827,8.271,46.3321,13.4437,90.788,14.8129,132.6975C3605.5211,4267.2047,3599.9842,4208.2673,3588.859,4145.9449Z"/></g><g class="f"><path d="M2812.6028,3344.4769c.8727,3.9281,1.382,6.2552,1.382,6.2552l79.5731,131.5067,25.3847-12.1468c46.842-92.8111,136.38-80.2279,136.38-80.2279l-35.8588-103.3574-2.4732-5.8189c-2.182-.4363-4.2912-.8732-6.4732-1.2368a67.46,67.46,0,0,0-46.9875,8.8012l-61.8983,37.75a124.8089,124.8089,0,0,1-65.39,18.4748Z"/></g><g class="f"><path d="M2416.1383,3344.4769c-.8728,3.9281-1.382,6.2552-1.382,6.2552l-79.5731,131.5067-25.3848-12.1468c-46.8419-92.8111-136.38-80.2279-136.38-80.2279l35.8588-103.3574,2.4731-5.8189c2.182-.4363,4.2912-.8732,6.4732-1.2368a67.46,67.46,0,0,1,46.9876,8.8012l61.8983,37.75a124.8088,124.8088,0,0,0,65.39,18.4748Z"/></g><path class="a" d="M3588.859,4146.9725c-34.33-192.6047-121.5407-417.2861-205.7692-622.183-5.8192-14.3291-11.71-28.5857-17.53-42.6236l-54.9149-31.4944-.0113-.0388-220.8994-56.02a159.8207,159.8207,0,0,0-155.8506,45.5742l-89.8718,95.8071a122.9584,122.9584,0,0,1-89.6772,38.835H2475.2417a122.9586,122.9586,0,0,1-89.6772-38.835l-89.8718-95.8071a159.8205,159.8205,0,0,0-155.85-45.5742l-220.9333,56.063L1864,3482.1659c-5.4556,13.1652-10.91,26.6217-16.4381,40.0047-19.0575,46.4056-38.26,93.7567-57.0256,141.5442-63.353,161.4739-121.1779,327.6752-148.4538,475.62-.4362,2.4728-.9456,5.0188-1.3818,7.4915a1.2413,1.2413,0,0,0-.0726.5094c-5.7459,32.0767-10.0375,63.2075-12.4381,93.2476-.1451,1.4547-.2909,2.8367-.3641,4.2187-11.6371,147.3631,18.8392,267.2318,122.2691,331.0213a118.8392,118.8392,0,0,0,134.2705-6.5464c70.4087-53.4609,151.8731-139.7262,235.52-232.6093,2.3273-2.5461,4.6546-5.0917,6.9825-7.71,42.9869-52.0063,97.1753-82.2645,170.9288-73.7544h633.9668c73.8267-8.51,127.9425,21.7481,171.0026,73.7544,86.0458,95.793,170.0559,185.4041,242.5008,240.3193a118.7224,118.7224,0,0,0,134.1979,6.5464C3604.9341,4498.36,3623.0455,4338.4861,3588.859,4146.9725Z"/><g class="f"><path d="M3479.4607,4575.7765c-41.7387,25.9386-95.0514,23.0657-134.1714-6.5059-72.4922-54.9186-156.4759-144.5624-242.4863-240.3745-43.0907-51.9611-97.2482-82.2086-171.0078-73.6751H2297.7811c-73.76-8.5335-127.9172,21.714-170.9234,73.6751-2.2813,2.6192-4.6474,5.2384-7.0133,7.7735-83.6444,92.8546-165.093,179.1186-235.4728,232.601a118.79,118.79,0,0,1-134.256,6.5059c-103.4158-63.79-133.9156-183.5968-122.257-331.0322a35.5669,35.5669,0,0,1,.3384-4.14c.3382-4.4782.7611-8.9559,1.2675-13.5188,11.3214,90.32,47.9063,162.8972,120.6511,207.6769a118.79,118.79,0,0,0,134.256-6.506c70.38-53.4818,151.8284-139.7464,235.4728-232.6009,2.3659-2.6192,4.732-5.1543,7.0133-7.7735,43.0062-51.9611,97.1637-82.2087,170.9234-73.76h634.0141a190.3511,190.3511,0,0,1,62.5218,2.6192c.0846.0846.0846,0,.0846,0,42.837-38.6121,61.6782-100.29,43.9354-157.6583-.8447-2.6192-1.69-5.2384-2.6186-7.7735-8.449-22.8119,17.9954-42.4983,37.0057-27.3747,1.184.93,2.2814,1.859,3.38,2.7883a151.0343,151.0343,0,0,1,48.0754,74.3512c13.1122,46.0945,2.97,94.7316-24.22,131.6083-12.1648,16.4986-10.5518,39.1428,2.58,54.8826q.132.1583.2637.3166c86.01,95.812,169.9941,185.4559,242.4863,240.3744,39.12,29.5716,92.4327,32.4445,134.1714,6.506,72.7448-44.8643,109.4142-117.4415,120.651-207.8455C3615.6576,4382.3785,3587.0164,4509.3674,3479.4607,4575.7765Z"/></g><path d="M3417.2361,4617.98a143.1962,143.1962,0,0,1-86.64-29.3886c-74.9123-56.7535-162.4574-150.509-245.9037-243.37q-.33-.3693-.6484-.7505c-42.4216-51.27-89.9148-71.9662-149.5084-65.1455a24.46,24.46,0,0,1-2.762.1581H2297.8025a24.4551,24.4551,0,0,1-2.7619-.1581c-59.5777-6.8148-107.0868,13.8777-149.5045,65.1455q-.3181.3813-.6484.7505c-83.4423,92.8569-170.9834,186.6064-245.9077,243.37-47.6172,36.0772-111.0736,39.1934-161.6649,7.9316-125.9479-77.8223-164.0025-233.6111-116.3492-476.2686,39.1954-199.5693,130.4751-429.25,220.61-647.398a24.2765,24.2765,0,0,1,10.3633-11.7962l46.2-26.5106,10.047-36.6935a91.18,91.18,0,0,1,48.99-58.4449c84.455-39.9059,170.7913-68.1115,256.6192-83.8365a91.223,91.223,0,0,1,64.0968,11.9263l61.8792,37.8184a101.019,101.019,0,0,0,52.6967,14.8244H2837.107A100.995,100.995,0,0,0,2889.8,3305.32l61.8831-37.8164a91.2031,91.2031,0,0,1,64.1008-11.9283c85.832,15.7269,172.1682,43.9327,256.6112,83.8365a91.1654,91.1654,0,0,1,48.9982,58.4468l10.047,36.6937,46.1963,26.5085A24.2763,24.2763,0,0,1,3388,3472.8566c90.1349,218.1483,181.4147,447.8287,220.61,647.398,47.6533,242.6575,9.5988,398.4463-116.3492,476.2686A142.4778,142.4778,0,0,1,3417.2361,4617.98Zm-296.0747-304.8789c81.7371,90.9475,167.2167,182.5354,238.7827,236.7553,31.494,23.8627,73.4032,25.9482,106.7706,5.3257,249.8824-154.4058,28.9722-694.4029-120.46-1056.1014l-47.6973-27.3691a24.2931,24.2931,0,0,1-11.3439-14.6582l-12.6929-46.3624a42.6153,42.6153,0,0,0-22.8879-27.3411c-80.6283-38.1006-162.9258-65.0074-244.6068-79.9738a42.7063,42.7063,0,0,0-30.005,5.5938l-61.8752,37.8145a149.6078,149.6078,0,0,1-78.0385,21.9573H2392.4685a149.6074,149.6074,0,0,1-78.0384-21.9573l-61.8752-37.8164a42.7391,42.7391,0,0,0-30.001-5.5919c-81.677,14.9644-163.9745,41.8712-244.6147,79.9738a42.6166,42.6166,0,0,0-22.88,27.3411l-12.6968,46.3643a24.3037,24.3037,0,0,1-11.344,14.6563l-47.6973,27.3691c-149.4323,361.6985-370.3426,901.6956-120.46,1056.1014,33.3753,20.6225,75.2845,18.533,106.77-5.3257,71.578-54.2279,157.05-145.81,238.7827-236.7533,52.7448-63.5524,115.2045-90.4431,190.7372-82.2174h631.2728C3005.9729,4222.6481,3068.4125,4249.5549,3121.1614,4313.1013Z"/><path d="M2754.3332,3596.4289H2475.2424a145.0764,145.0764,0,0,1-105.43-45.66l-89.8707-95.8069a138.24,138.24,0,0,0-134.79-39.4135l-220.9182,56.0251a21.5989,21.5989,0,0,1-10.6154-41.8732l220.9182-56.0251A181.4569,181.4569,0,0,1,2311.444,3425.41l89.8707,95.8068a101.7387,101.7387,0,0,0,73.9277,32.0145h279.0908a101.7384,101.7384,0,0,0,73.9277-32.0145l89.8707-95.8068a181.4473,181.4473,0,0,1,176.9116-51.7341l220.9142,56.0251a21.5989,21.5989,0,0,1-10.6154,41.8732l-220.9142-56.0251a138.2544,138.2544,0,0,0-134.7942,39.4135l-89.8708,95.8069A145.0761,145.0761,0,0,1,2754.3332,3596.4289Z"/><path d="M2295.681,3456.3891a16.2064,16.2064,0,0,1-14.41-23.5805l53.0171-103.65a16.1993,16.1993,0,0,1,28.8441,14.7543l-53.0171,103.65A16.2008,16.2008,0,0,1,2295.681,3456.3891Z"/><path d="M2933.9747,3456.3891a16.1971,16.1971,0,0,1-14.4341-8.8262l-53.021-103.65a16.1993,16.1993,0,0,1,28.8441-14.7543l53.021,103.65a16.2063,16.2063,0,0,1-14.41,23.5805Z"/><circle class="g" cx="2357.8409" cy="3990.2503" r="156.5899"/><path class="d" d="M2357.84,4148.8886c-87.4731,0-158.6388-71.1657-158.6388-158.6387s71.1657-158.6388,158.6388-158.6388,158.6387,71.1657,158.6387,158.6388S2445.3134,4148.8886,2357.84,4148.8886Zm0-313.1786c-85.2155,0-154.54,69.3264-154.54,154.54s69.3244,154.54,154.54,154.54,154.54-69.3263,154.54-154.54S2443.0559,3835.71,2357.84,3835.71Z"/><g class="f"><path d="M2484.5041,3898.232a156.5679,156.5679,0,0,0-185.586,237.0985,156.5855,156.5855,0,1,1,185.586-237.0985Z"/><path d="M2306.2964,4141.0852l-8.3418-3.3784a158.4236,158.4236,0,0,1-99.2774-147.4649c0-87.7573,71.3939-159.1531,159.1512-159.1531a159.6707,159.6707,0,0,1,128.75,65.6358l5.2877,7.2771-8.33-3.3964a152.73,152.73,0,0,0-57.9405-11.31c-84.9313,0-154.0315,69.0942-154.0315,154.0255a152.4454,152.4454,0,0,0,29.4245,90.4992Zm51.532-304.8689c-84.9313,0-154.0276,69.0963-154.0276,154.0256a153.2815,153.2815,0,0,0,87.9094,139.1292,157.5233,157.5233,0,0,1-25.27-86.05c0-87.7573,71.3978-159.1531,159.1551-159.1531a158.0176,158.0176,0,0,1,51.3759,8.504A154.56,154.56,0,0,0,2357.8284,3836.2163Z"/></g><path d="M2357.84,4162.2179c-94.8222,0-171.9681-77.1438-171.9681-171.968s77.1459-171.9681,171.9681-171.9681,171.9681,77.1438,171.9681,171.9681S2452.6626,4162.2179,2357.84,4162.2179Zm0-313.1786c-77.8623,0-141.2106,63.3462-141.2106,141.2106s63.3483,141.2106,141.2106,141.2106,141.2106-63.3463,141.2106-141.2106S2435.7028,3849.0393,2357.84,3849.0393Z"/><circle class="h" cx="2880.9436" cy="3990.2503" r="111.5928" transform="translate(-1977.7242 3205.852) rotate(-45)"/><path class="d" d="M2880.9416,4104.4076A114.1567,114.1567,0,1,1,2995.0973,3990.25,114.2843,114.2843,0,0,1,2880.9416,4104.4076Zm0-223.1858A109.0291,109.0291,0,1,0,2989.9737,3990.25,109.152,109.152,0,0,0,2880.9416,3881.2218Z"/><circle class="g" cx="2880.9436" cy="3990.2503" r="111.5928" transform="translate(-1977.7242 3205.852) rotate(-45)"/><path class="d" d="M2880.9416,4103.8933A113.6424,113.6424,0,1,1,2994.585,3990.25,113.77,113.77,0,0,1,2880.9416,4103.8933Zm0-223.1859A109.5435,109.5435,0,1,0,2990.4861,3990.25,109.6646,109.6646,0,0,0,2880.9416,3880.7074Z"/><path d="M2880.9416,4117.2225A126.9717,126.9717,0,1,1,3007.9143,3990.25,127.113,127.113,0,0,1,2880.9416,4117.2225Zm0-223.1858a96.2142,96.2142,0,1,0,96.2153,96.2132A96.3231,96.3231,0,0,0,2880.9416,3894.0367Z"/><circle cx="2880.9436" cy="3990.2503" r="53.0966"/><circle class="h" cx="2112.4114" cy="3675.6036" r="111.5928" transform="translate(-1980.3332 2570.2598) rotate(-45)"/><path class="d" d="M2112.4131,3789.76a114.1567,114.1567,0,1,1,114.1516-114.1556A114.2833,114.2833,0,0,1,2112.4131,3789.76Zm0-223.1858a109.0292,109.0292,0,1,0,109.028,109.03A109.156,109.156,0,0,0,2112.4131,3566.574Z"/><g class="f"><path d="M2329.8741,3753.0878c-5.528,72.3-63.0633,131.5067-135.1439,139.071a151.3113,151.3113,0,0,1-119.7231-40.15c-10.11-15.6379-.2912-26.9847,14.6929-26.4031a151.0533,151.0533,0,0,0,30.4758,1.5276c76.81-3.7824,139.6527-66.4079,143.7263-143.2171.1456-2.6911.2184-5.4551.2184-8.1463.0728-24.3664,31.64-33.6768,44.2232-12.8744.8,1.31,1.528,2.546,2.2543,3.7824A150.9581,150.9581,0,0,1,2329.8741,3753.0878Z"/></g><circle class="g" cx="2112.4114" cy="3675.6036" r="111.5928" transform="translate(-1980.3332 2570.2598) rotate(-45)"/><path d="M2112.4131,3809.0174c-73.5635,0-133.4132-59.85-133.4132-133.4132,0-73.5654,59.85-133.4152,133.4132-133.4152s133.4091,59.85,133.4091,133.4152C2245.8222,3749.1675,2185.9764,3809.0174,2112.4131,3809.0174Zm0-223.1859a89.7717,89.7717,0,1,0,89.7706,89.7727A89.8751,89.8751,0,0,0,2112.4131,3585.8315Z"/><circle cx="2112.4114" cy="3675.6036" r="53.0965"/><circle class="i" cx="3123.9488" cy="3566.2218" r="61.7642"/><path d="M2466.0914,3962.5952v55.31a12.41,12.41,0,0,1-12.41,12.41h-52.3856v52.3856a12.41,12.41,0,0,1-12.41,12.41h-55.2566a12.41,12.41,0,0,1-12.41-12.41v-52.3856H2268.833a12.41,12.41,0,0,1-12.41-12.41v-55.31a12.41,12.41,0,0,1,12.41-12.41h52.3857v-52.3856a12.41,12.41,0,0,1,12.41-12.41h55.2566a12.41,12.41,0,0,1,12.41,12.41v52.3856h52.3856A12.41,12.41,0,0,1,2466.0914,3962.5952Z"/><circle class="j" cx="3250.8684" cy="3693.1414" r="61.7642"/><circle class="k" cx="2997.0292" cy="3693.1414" r="61.7642"/><g class="f"><path d="M3222.72,3609.6057a61.78,61.78,0,0,1-120.0882,20.4108,61.7487,61.7487,0,0,0,91.2542-54.2664,62.5359,62.5359,0,0,0-3.4558-20.4109A61.6888,61.6888,0,0,1,3222.72,3609.6057Z"/><path d="M3222.72,3863.4433a61.78,61.78,0,0,1-120.0882,20.4108,61.749,61.749,0,0,0,91.2542-54.2668,62.0482,62.0482,0,0,0-3.4558-20.41A61.6887,61.6887,0,0,1,3222.72,3863.4433Z"/><path d="M3349.6115,3736.5515a61.7911,61.7911,0,0,1-120.0882,20.4108,61.7921,61.7921,0,0,0,91.3083-54.2667,62.0488,62.0488,0,0,0-3.4559-20.41A61.7046,61.7046,0,0,1,3349.6115,3736.5515Z"/><path d="M3095.7738,3736.5515a61.7911,61.7911,0,0,1-120.0881,20.4108,61.792,61.792,0,0,0,91.3082-54.2667,62.0488,62.0488,0,0,0-3.4558-20.41A61.7045,61.7045,0,0,1,3095.7738,3736.5515Z"/></g><circle class="l" cx="3123.9488" cy="3820.061" r="61.7642"/><g class="e"><path class="a" d="M3168.6212,3523.6209a58.6456,58.6456,0,0,0-16.3916-2.2808,61.7318,61.7318,0,0,0-44.6946,104.345,61.7262,61.7262,0,1,1,61.0862-102.0642Z"/></g><g class="e"><path class="a" d="M3295.5255,3650.5252a58.646,58.646,0,0,0-16.3916-2.2814,61.7322,61.7322,0,0,0-44.6946,104.3456,61.7264,61.7264,0,1,1,61.0862-102.0642Z"/></g><g class="e"><path class="a" d="M3041.7169,3650.5252a58.6441,58.6441,0,0,0-16.3906-2.2814,61.7323,61.7323,0,0,0-44.6956,104.3456,61.7264,61.7264,0,1,1,61.0862-102.0642Z"/></g><g class="e"><path class="a" d="M3168.6212,3777.5141a58.6276,58.6276,0,0,0-16.3916-2.2814,61.7318,61.7318,0,0,0-44.6946,104.3451,61.7261,61.7261,0,1,1,61.0862-102.0637Z"/></g><path d="M3123.9473,3900.0109a79.95,79.95,0,1,1,79.9519-79.95A80.04,80.04,0,0,1,3123.9473,3900.0109Zm0-123.53a43.58,43.58,0,1,0,43.5824,43.58A43.6288,43.6288,0,0,0,3123.9473,3776.4806Z"/><path d="M3123.9473,3646.1716a79.95,79.95,0,1,1,79.9519-79.95A80.0395,80.0395,0,0,1,3123.9473,3646.1716Zm0-123.53a43.58,43.58,0,1,0,43.5824,43.58A43.6287,43.6287,0,0,0,3123.9473,3522.6414Z"/><path d="M3250.868,3773.09a79.9489,79.9489,0,1,1,79.9478-79.95A80.04,80.04,0,0,1,3250.868,3773.09Zm0-123.5283a43.5794,43.5794,0,1,0,43.5784,43.5784A43.6284,43.6284,0,0,0,3250.868,3649.562Z"/><path d="M2997.0307,3773.09a79.9489,79.9489,0,1,1,79.9478-79.95A80.04,80.04,0,0,1,2997.0307,3773.09Zm0-123.5283a43.5794,43.5794,0,1,0,43.5784,43.5784A43.6291,43.6291,0,0,0,2997.0307,3649.562Z"/><circle cx="2519.207" cy="3733.9129" r="40.7715" transform="translate(-1693.6151 5327.8511) rotate(-76.7175)"/><circle cx="2710.3692" cy="3733.9129" r="40.7715" transform="translate(-1846.4264 3010.1582) rotate(-45)"/><g class="f"><path d="M2586.0715,3758.2731a40.7331,40.7331,0,0,1-78.7808,14.6329,39.6489,39.6489,0,0,0,11.9333,1.7819,40.7656,40.7656,0,0,0,40.7674-40.7673,39.8394,39.8394,0,0,0-2.7539-14.6331A40.7657,40.7657,0,0,1,2586.0715,3758.2731Z"/><path d="M2777.2192,3758.2731a40.733,40.733,0,0,1-78.7807,14.6329,39.645,39.645,0,0,0,11.933,1.7819,40.7656,40.7656,0,0,0,40.7673-40.7673,39.8453,39.8453,0,0,0-2.7535-14.6331A40.7656,40.7656,0,0,1,2777.2192,3758.2731Z"/></g></svg>